<svg xmlns="http://www.w3.org/2000/svg" width="150" height="28" viewBox="0 0 150 28">
    <g fill="none" fill-rule="evenodd">
        <path fill="gray" d="M68.94 3.068h-1.855a.885.885 0 0 0-.885.885v19.201c0 .49.396.886.886.886h1.854a.886.886 0 0 0 .885-.886v-19.2a.885.885 0 0 0-.885-.886M76.747 3.068h-1.855a.885.885 0 0 0-.885.885v19.201c0 .49.396.886.886.886h1.854a.886.886 0 0 0 .885-.886v-19.2a.885.885 0 0 0-.885-.886M133.514 3.068h-1.855a.885.885 0 0 0-.885.885v19.201c0 .49.396.886.885.886h1.855a.886.886 0 0 0 .885-.886v-19.2a.885.885 0 0 0-.885-.886M125.69 8.762h-1.856a.885.885 0 0 0-.885.885v13.508c0 .488.396.885.886.885h1.854a.885.885 0 0 0 .885-.885V9.647a.885.885 0 0 0-.885-.885M95.234 3.068H79.987a.885.885 0 0 0-.885.885v1.65c0 .488.397.885.885.885h5.768v16.666c0 .49.397.886.886.886h1.936a.886.886 0 0 0 .885-.886V6.488h5.772a.886.886 0 0 0 .885-.886V3.953a.885.885 0 0 0-.885-.885"/>
        <path fill="gray" d="M103.108 7.95a.843.843 0 0 0-.101.006l.001-.002c-2.238.259-3.75 1.757-4.617 3.833v-2.14a.886.886 0 0 0-.886-.885h-1.854a.885.885 0 0 0-.885.886v13.506c0 .49.396.886.885.886h1.854a.886.886 0 0 0 .886-.886v-5.137c0-3.845 1.866-5.901 4.625-6.216l-.001-.002c.551-.063.978-.53.978-1.098V8.835a.885.885 0 0 0-.885-.885M115.421 18.318c0 1.978-1.798 3.326-4.195 3.326-1.707 0-3.055-.84-3.055-2.337v-.06c0-1.528 1.348-2.457 3.625-2.457 1.408 0 2.696.27 3.625.629v.899zm-3.445-10.336c-2.2 0-3.768.394-5.26.994a.886.886 0 0 0-.497 1.098l-.003-.004.432 1.272.001-.001a.886.886 0 0 0 1.144.534c1.131-.408 2.258-.658 3.673-.658 2.517 0 3.895 1.199 3.895 3.386v.299c-1.228-.39-2.457-.658-4.374-.658-3.685 0-6.41 1.677-6.41 5.182v.06c0 3.176 2.635 4.884 5.631 4.884 2.397 0 4.045-.99 5.123-2.277v1.062c0 .489.397.885.885.885h1.825a.885.885 0 0 0 .885-.885v-8.492c0-4.224-2.277-6.681-6.95-6.681zM126.775 4.72a2.013 2.013 0 1 0-4.026 0 2.013 2.013 0 0 0 4.026 0M145.086 14.693c-1.858-.6-3.565-1.08-3.565-2.217v-.06c0-.93.81-1.588 2.217-1.588 1.111 0 2.435.406 3.74 1.089a.881.881 0 0 0 1.142-.34l.49-.877c.086-.157.137-.352.137-.545 0-.427-.243-.798-.598-.983h.001c-1.49-.765-3.216-1.22-4.823-1.22-3.145 0-5.632 1.827-5.632 4.824v.06c0 3.025 2.607 3.984 4.943 4.643 1.858.569 3.536.989 3.536 2.217v.06c0 1.049-.899 1.708-2.457 1.708-1.4 0-2.98-.495-4.486-1.463a.885.885 0 0 0-1.196.279l-.002-.003-.536.814h.001a1.103 1.103 0 0 0 .29 1.496c1.808 1.154 3.911 1.753 5.84 1.753 3.295 0 5.871-1.648 5.871-4.974v-.06c0-2.845-2.606-3.894-4.913-4.613M54.153 7.322l3.595 8.39.39.945h-7.97l.39-.946 3.595-8.389zm10.336 15.485L56.034 3.451h-.001a.886.886 0 0 0-.813-.533h-2.132a.885.885 0 0 0-.813.533h-.001l-8.457 19.357v-.002a.886.886 0 0 0 .815 1.233h1.544c.543 0 1.008-.325 1.215-.79l1.417-3.327h10.692l1.417 3.326c.207.466.672.791 1.215.791h1.543a.886.886 0 0 0 .815-1.233z"/>
        <path fill="#428813" d="M38.389 24.427c-6.229-6.575-19.576-9.323-28.1-5.211l8.917-12.35 4.26 6.744a.821.821 0 0 0 1.15.266h.002l.01-.007a.014.014 0 0 0 .004-.003l3.214-2.15s5.013 5.397 7.758 8.345l.008.008.003.004.001-.001a.31.31 0 0 0 .522-.224c0-.052-.014-.1-.037-.143l.001-.001c-1.61-2.817-4.489-7.802-6.886-11.93-.411-.703-.894-.815-1.597-.354l-2.172 1.492L19.969.445 19.94.401l-.009-.013h-.002a.941.941 0 0 0-.76-.388.943.943 0 0 0-.717.335h-.004a1.957 1.957 0 0 0-.041.055c-.01.013-.02.025-.028.038A9210.125 9210.125 0 0 1 .131 24.836l.001.002a.687.687 0 0 0 .554 1.088.665.665 0 0 0 .298-.072l.002.002c.157-.075.324-.165.491-.256 5.09-2.633 16.52-6.472 24.42-.419 3.469 2.944 15.569 2.28 12.492-.754"/>
    </g>
</svg>
