<?xml version="1.0"?>
<svg xmlns:rdf="http://www.w3.org/1999/02/22-rdf-syntax-ns#" xmlns="http://www.w3.org/2000/svg" xmlns:cc="http://web.resource.org/cc/" xmlns:dc="http://purl.org/dc/elements/1.1/" xmlns:svg="http://www.w3.org/2000/svg" id="svg2" viewBox="0 0 911.1 380.51" version="1.0">
  <g id="layer1" transform="translate(3.1875 -18.401)">
    <path id="path2251" fill='#2d6a4f' d="m344.59 399.9c3.83-13.42 5.47-27.9 4.27-37.54-1.11-8.85-2.26-11.23-6.33-13.09-2.84-1.29-4.53-3.42-3.94-4.96 0.77-1.99-0.29-2.37-4.04-1.43-2.8 0.71-4.94 0.49-4.76-0.48 0.75-4.17-0.45-4.77-4.71-2.34-2.51 1.43-5.46 2.66-6.58 2.74-1.11 0.09-5.54 1.69-9.85 3.55-9.63 4.18-10.23 4.18-13.56 0.18-2.36-2.85-1.96-3.11 3.46-2.25 4.63 0.73 6.75-0.04 8.69-3.14 2.24-3.6 2.13-3.95-0.9-2.78-3 1.15-3.29 0.38-2.13-5.78 0.73-3.9 0.6-7.1-0.3-7.1-1.99 0-7.66 8.52-7.07 10.62 0.24 0.83-0.99 1.51-2.72 1.51-1.74 0-2.6 0.91-1.91 2.03 0.69 1.11-0.55 2.02-2.74 2.02-2.2 0-4.36 1.09-4.81 2.43-0.6 1.79-1.18 1.82-2.23 0.12-0.79-1.27 0.48-4.09 2.81-6.26 2.41-2.25 3.38-4.49 2.25-5.18-2.41-1.5-8.45 0.62-12.11 4.23-3.87 3.82-6.32 3.26-8.27-1.91-1.43-3.78-0.76-5.07 3.91-7.59 4.07-2.19 4.98-3.59 3.3-5.05-1.28-1.12-3.24-2.08-4.35-2.14-3.58-0.2-13.15-3.33-13.15-4.29 0-0.52 1.39-2.33 3.09-4.03 2.47-2.47 3.69-2.59 6.07-0.62 1.64 1.36 2.97 1.79 2.97 0.96 0-0.82 1.54-0.25 3.43 1.27 2.95 2.4 3.17 2.36 1.58-0.25-1.02-1.67-1.56-5.27-1.2-8 0.57-4.47 0.29-4.68-2.81-2.1-3.01 2.5-3.78 2.42-5.99-0.6-1.39-1.9-3.57-3.46-4.83-3.46-1.27 0-2.31-1.92-2.31-4.26 0-2.96 0.93-3.91 3.03-3.1 1.67 0.64 3.04 0.28 3.04-0.79 0-2.87 5.55-2.4 6.75 0.57 0.56 1.39 1.09 0.02 1.18-3.04s-0.75-5.56-1.87-5.56c-1.11 0-2.02-1.36-2.02-3.03 0-1.69 1.8-3.04 4.05-3.04 3.08 0 4.04-1.34 4.04-5.66 0-3.11 0.94-6.6 2.09-7.75 2.75-2.75-0.21-9.84-4.11-9.84-1.67 0-4.28 1.18-5.8 2.62-3.43 3.25-4.23 2.51-5.21-4.88-0.43-3.21-1.36-7.31-2.08-9.11-0.8-2.02-0.09-3.74 1.85-4.49 3.74-1.43 4.09-5.65 0.75-8.99-3-3-4.22-10.41-2.38-14.51 1.66-3.71 2.17-5.4 2.5-8.39 0.14-1.23 1.71-1.68 3.48-1 2.14 0.82 3.57-0.1 4.27-2.77 0.68-2.61 3.43-4.45 7.95-5.29 3.8-0.72 8.06-2.95 9.47-4.97 1.41-2.01 5.03-4.28 8.04-5.04 3.01-0.75 5.47-2.18 5.47-3.17 0-1 1.37-1.81 3.04-1.81 1.66 0 3.03 0.91 3.03 2.02 0 1.12 0.91 2.03 2.02 2.03s2.02-1.81 2.02-4.01c0-2.56 1.79-4.45 4.94-5.24 4.34-1.09 4.7-1.86 2.97-6.39-1.51-3.98-1.18-6.01 1.46-8.93 1.88-2.07 3.81-3.38 4.3-2.89 0.48 0.48 4-0.88 7.82-3.02 3.83-2.15 8.8-3.9 11.05-3.9 2.62 0 3.58-0.86 2.64-2.37-1-1.63-0.32-1.93 2.22-0.95 2.43 0.93 5.25-0.06 8.28-2.91 2.53-2.38 5.8-3.89 7.27-3.37s4.94-0.17 7.73-1.53c6.28-3.09 17.69-3.47 19.43-0.66 0.84 1.37 1.97 1.14 3.22-0.64 1.12-1.59 2.3-1.89 2.81-0.72 2.4 5.44 4.63 7.31 9.1 7.61 2.68 0.19 5.95 1.38 7.26 2.66 1.32 1.27 5.96 2.89 10.31 3.58 9.83 1.57 25.11 14.73 20.5 17.65-1.57 0.99-2.12 1.82-1.2 1.84 0.91 0.02 0.17 1.52-1.65 3.34s-2.57 4.01-1.66 4.87c2.76 2.61 17.58 5.99 18.75 4.26 0.6-0.88 2.75-2.22 4.78-2.97 2.95-1.09 3.55-0.47 3.03 3.18-0.35 2.5-1.55 4.4-2.67 4.23-3.19-0.5-5.1 4.08-2.42 5.79 3.71 2.36 5.46 1.9 5.46-1.43 0-1.67 1.44-3.04 3.21-3.04 2.65 0 2.96 1.49 1.77 8.6-1.48 8.9-4.17 12.25-8.52 10.66-3.86-1.42-3.02 2.5 1.51 7.03 4.62 4.62 5.12 8.23 1.62 11.73-1.71 1.72-1.76 2.43-0.14 2.43 1.25 0 3.68-1.4 5.39-3.11 2.79-2.79 3.57-2.64 7.72 1.52 2.55 2.54 5.35 4.38 6.23 4.09s1.38 3.09 1.12 7.53c-0.57 9.63 1.15 11.91 6.47 8.58 2.73-1.71 3.95-1.78 3.95-0.24 0 1.23-1.7 2.68-3.79 3.22-2.09 0.55-4.97 3.19-6.41 5.88-2.19 4.1-3.94 4.8-10.87 4.38-6.21-0.38-8.25 0.25-8.25 2.53 0 2.08 2.07 3.03 6.57 3.01 3.62-0.01 6.57 0.58 6.57 1.3 0 0.73 2.28 1.89 5.06 2.59 2.78 0.69 5.06 2.14 5.06 3.2 0 1.22 1.91 1.21 5.18-0.04 6.85-2.6 6.74-2.66 5.45 2.58-0.62 2.5-0.42 3.91 0.43 3.13 2.52-2.31 7.34 3.95 6.91 8.94-0.92 10.53 0.15 13.71 4.61 13.71 7.23 0 2.55 2.39-5.77 2.94-10.34 0.69-12.79 1.5-17.15 5.66-2.04 1.95-5.07 3.54-6.74 3.54s-3.09 1.14-3.16 2.53c-0.08 1.39-0.92 0.58-1.87-1.79-1.93-4.78-14.12-7.42-21.26-4.61-2.23 0.87-2.91 1.65-1.52 1.72s2.53 1.95 2.53 4.17c0 2.23 0.92 4.05 2.06 4.05 1.18 0 1.56-2.37 0.88-5.57-0.98-4.63-0.8-4.97 1.08-2.02 1.23 1.95 3.62 3.54 5.3 3.54s2.49 0.91 1.8 2.02c-0.68 1.11 0.17 4.04 1.91 6.52 3.78 5.39 4.09 8.46 0.65 6.34-3.45-2.14-10.24-2.54-12.67-0.75-4.67 3.44-12.73 4.04-13.88 1.02-0.64-1.66-0.26-3.02 0.84-3.02 2.32 0 0.18-10.52-2.51-12.29-0.98-0.65-1.2-2.69-0.48-4.55 0.96-2.5 0.18-3.38-2.97-3.38-2.34 0-4.26 0.97-4.26 2.14 0 1.18 0.91 1.58 2.02 0.89 4.01-2.47 1.93 4.63-2.15 7.34-4.92 3.27-3.48 9.85 2.15 9.85 1.99 0 4.19 1.49 4.88 3.31 1.09 2.82 0.08 3.15-6.86 2.22-9.66-1.3-10.5 0.53-1.98 4.3 4.97 2.2 5.69 3.26 3.76 5.58-1.87 2.26-1.56 3.81 1.44 7.22 3.45 3.93 3.48 4.23 0.28 3.06-2.35-0.86-3.54-0.29-3.54 1.68 0 1.63-0.91 2.97-2.02 2.97s-2.02-0.82-2.02-1.83-1.94-1.33-4.3-0.71c-2.78 0.73-4.96-0.06-6.17-2.21-2.48-4.43-5.71-4.25-5.71 0.32 0 2.01-1.43 5.42-3.19 7.58-3.1 3.83-3.15 3.81-2.19-0.67 0.59-2.79 0.05-4.48-1.37-4.31-5.8 0.71-9.43-0.4-9.43-2.89 0-1.48-1.14-2.82-2.53-2.97-5.92-0.64-16.75-2-17.59-2.2-0.5-0.12 0.18-1.31 1.51-2.65 3.34-3.33 3.05-7.68-0.5-7.68-1.62 0-3.86-1.6-5-3.54-1.94-3.34-2.06-3.33-2.12 0.13-0.05 2.75-1.08 3.35-4.11 2.4-2.58-0.82-4.04-0.37-4.04 1.26 0 1.42-1.32 0.8-2.97-1.38-5.35-7.08-3.61 1.56 2.92 14.49 5.21 10.33 6.09 14.48 6.57 31.13l0.56 19.21-14.93 0.6c-14.71 0.59-14.9 0.54-13.59-4.04zm86.1-55.06c-2.72-2.72-4.74 0.04-3.12 4.26 1.16 3.03 1.65 3.12 3.2 0.61 1.1-1.79 1.07-3.72-0.08-4.87zm-11.95 3.1c2.83 4.57 4.48 0.38 2.99-7.56-0.93-4.94-1.97-6.64-3.03-4.94-0.99 1.6-3.27 2.08-5.9 1.24-4.97-1.57-5.7 1.3-1.27 4.98 1.67 1.38 3.11 4 3.2 5.81 0.11 2.42 0.44 2.56 1.25 0.53 0.91-2.28 1.38-2.29 2.76-0.06zm-11.89-6.72c-1.45-1.45-2.4-1.57-2.4-0.3 0 2.7 2.4 5.09 3.74 3.74 0.58-0.58-0.03-2.12-1.34-3.44zm-8.97 1.07c-1.95-0.51-3.54-2.76-3.54-4.99 0-5.4-4.86-3.7-5.7 1.99-0.56 3.79 0.27 4.36 6.07 4.16 3.69-0.13 5.12-0.65 3.17-1.16zm-74.32-11.15c0-0.86-1.48-3.29-3.28-5.4-3.04-3.54-3.58-3.59-7.08-0.59-4.73 4.05-4.8 5.86-0.26 6.94 5.37 1.28 10.62 0.81 10.62-0.95zm-35.4-5.33c-1.44-1.44-7.07 1.47-7.07 3.67 0 1.33 1.45 1.2 3.95-0.37 2.18-1.35 3.58-2.84 3.12-3.3zm128.81 4.36c-1.46-0.59-3.21-0.52-3.88 0.16-0.67 0.67 0.52 1.15 2.66 1.06 2.35-0.1 2.83-0.58 1.22-1.22zm10.95-5.7c-2.11-1.6-4.83-2.29-6.05-1.54-1.27 0.79-0.08 1.96 2.83 2.77 7.29 2.03 7.44 1.97 3.22-1.23zm-118.85-5.2c2.66-0.11 2.52-0.49-0.68-1.79-4.77-1.95-8.21 0.48-5.92 4.19 1.21 1.95 1.81 2 2.42 0.17 0.44-1.33 2.32-2.49 4.18-2.57zm25.06-3.08c-0.71-3.69-1.48-4.46-2.64-2.59-0.9 1.46-0.67 3.81 0.52 5.24 3.01 3.63 3.26 3.32 2.12-2.65zm94.57-3.84c2.26-1.4 1.67-8.22-0.92-10.58-0.96-0.87-0.96-0.21-0.01 1.46 1.47 2.59 1.24 2.64-1.59 0.35-2.42-1.96-4.3-2.12-6.96-0.57-2 1.17-2.51 2.15-1.12 2.19 3.96 0.09 2.97 6.12-1.01 6.15-2.87 0.03-2.99 0.38-0.67 1.85 2.88 1.82 8.6 1.42 12.28-0.85zm-71.75-8.73c-1.13-2.92-1.72-2.69-4.04 1.62-2.02 3.74-2.12 5.42-0.39 6.48 3.05 1.89 6.13-3.74 4.43-8.1zm25.26 5.82c0-3.53 6.63-7.66 10.61-6.61 2.8 0.74 1.56-7.16-1.51-9.71-2.1-1.74-3.04-1.81-3.04-0.25 0 1.25-1.39 2.27-3.1 2.27-2.52 0-2.68 0.8-0.84 4.24 2.07 3.86 1.85 4.11-2.45 2.78-2.6-0.8-4.08-0.76-3.28 0.08 0.79 0.84 0.6 3.11-0.44 5.04-1.87 3.49-0.86 6.07 2.36 6.07 0.93 0 1.69-1.76 1.69-3.91zm90.32-1.66c-0.5-0.83 0.42-2.74 2.04-4.25 2.52-2.32 3.13-2.1 4.07 1.52 0.81 3.08 2.72 4.25 6.94 4.25 6.43 0 7.45-2.21 2.8-6.07-1.67-1.38-3.03-1.92-3.03-1.2s-2.73-0.1-6.07-1.83c-3.78-1.95-6.07-2.31-6.07-0.94 0 1.2-0.83 1.68-1.85 1.05-1.01-0.63-2.31 0-2.87 1.39-0.56 1.4-1.1 0.5-1.18-2-0.13-3.66-1.34-4.56-6.11-4.56-6.32 0-9.95-3-5.69-4.72 1.53-0.62 1.13-1.09-1-1.18-1.95-0.09-3.54 0.66-3.54 1.67s-1.84 1.35-4.08 0.77c-3.01-0.79-3.77-0.28-2.92 1.94 0.76 1.98-0.43 3.43-3.47 4.23-7.17 1.87-1.82 5.53 9.18 6.26 7.12 0.48 9.38-0.07 9.38-2.29 0-2.09 1.88-1.44 6.57 2.26 6.86 5.4 8.45 6.25 6.9 3.7zm-68.08-8.59c0-1.11-1.42-2.02-3.15-2.02s-2.59 0.91-1.9 2.02c1.61 2.62 5.05 2.62 5.05 0zm24.27-1.13c0-0.49-1.42-0.89-3.15-0.89s-2.58 0.92-1.88 2.05c1.15 1.87 5.03 0.97 5.03-1.16zm-128.74-1.55c0.73 0.73 1.33 0.32 1.33-0.91 0-3.85-3.94-4.89-6.99-1.84-3.37 3.37-1.66 6.39 1.94 3.41 1.31-1.1 2.99-1.39 3.72-0.66zm45.82-0.35c0-1.67-0.91-3.04-2.02-3.04s-2.02 1.37-2.02 3.04c0 1.66 0.91 3.03 2.02 3.03s2.02-1.37 2.02-3.03zm69.34-1.05c-1.21-4.63-4.62-7.5-4.62-3.89 0 1.38-1.69 1.93-4.04 1.32-4.99-1.31-5.33 1.66-0.51 4.47 6.09 3.54 10.37 2.66 9.17-1.9zm50.36-5.39c-1.46-0.59-3.2-0.51-3.87 0.16s0.52 1.15 2.65 1.06c2.36-0.1 2.84-0.58 1.22-1.22zm-59.02-4.69c0-1.11-0.97-2.02-2.15-2.02-1.17 0-1.58 0.91-0.89 2.02 1.6 2.59 3.04 2.59 3.04 0zm-13.78-1.38c-1.46-0.58-3.21-0.51-3.88 0.16s0.52 1.15 2.66 1.06c2.35-0.09 2.83-0.57 1.22-1.22zm-91.39-5.91c0-0.44-1.36-0.8-3.03-0.8s-3.03 0.88-3.03 1.96 1.36 1.44 3.03 0.8 3.03-1.52 3.03-1.96zm140.39 2.02c3.28-1.26 4.61-5.24 1.45-4.33-0.97 0.27-3.6-1.74-5.84-4.49-3.5-4.28-4.54-4.61-7.35-2.28-4.55 3.78-4.08 5.62 1.8 7.09 2.78 0.7 5.05 2.16 5.05 3.25 0 2.32 0.59 2.41 4.89 0.76zm-133.94-2.18c-1.46-0.58-3.21-0.51-3.88 0.16-0.67 0.68 0.53 1.15 2.66 1.07 2.35-0.1 2.83-0.58 1.22-1.23zm75.68-8.22c4.34-5.72 3.65-9.15-1.23-6.1-2.23 1.39-4.05 4.12-4.05 6.08 0 4.52 1.85 4.53 5.28 0.02zm-19.78-4.39c0.59-4.01 0.19-4.26-3.54-2.27-5.1 2.73-5.59 8.02-0.66 7.31 1.94-0.28 3.84-2.55 4.2-5.04zm-72.46 0.73c0-1.73-0.92-2.58-2.05-1.88s-1.54 2.12-0.9 3.15c1.74 2.81 2.95 2.28 2.95-1.27zm19.42-2.37c-0.67-0.67-1.15 0.53-1.06 2.66 0.1 2.35 0.58 2.83 1.22 1.22 0.59-1.46 0.52-3.2-0.16-3.88zm11.93 1.48c-0.69-1.11-2.79-2.01-4.67-1.99-2.95 0.02-3 0.3-0.39 1.99 3.96 2.56 6.64 2.56 5.06 0zm37.41-7.95c0-2.08-1.16-1.68-4.04 1.42-5.17 5.54-5.17 7.27 0 4.04 2.22-1.39 4.04-3.85 4.04-5.46zm58.65-0.14c0-1.11-1.59-2.01-3.54-1.99-3.02 0.02-3.1 0.31-0.5 1.99 3.81 2.47 4.04 2.47 4.04 0zm-115.27-4.16c0-1.18-0.91-1.58-2.03-0.9-2.59 1.61-2.59 3.04 0 3.04 1.12 0 2.03-0.97 2.03-2.14zm97.87-12.36c-0.99-1.59-0.36-1.95 1.9-1.08 3.49 1.34 4.54-1.95 1.82-5.66-2.1-2.85-9.52-2.39-13.39 0.82-4.7 3.9-4.04 5.87 2.3 6.83 3.05 0.47 6.29 0.98 7.19 1.15s0.98-0.76 0.18-2.06zm-33.16-5.73c0-1.11-0.91-2.02-2.02-2.02s-2.02 0.91-2.02 2.02c0 1.12 0.91 2.03 2.02 2.03s2.02-0.91 2.02-2.03zm-62.69-3.81c0-1.93-8.36-4.68-9.81-3.23-0.68 0.68 5.5 3.93 9.3 4.89 0.28 0.07 0.51-0.67 0.51-1.66zm65.82-10.39c6.4-3.43 6.45-6.49 0.06-4.06-3.58 1.37-5.54 1.09-7.31-1.04-1.32-1.59-3.21-2.4-4.2-1.79-2.97 1.84-2.02 4.57 2.05 5.86 2.14 0.68 3.61 2.75 3.32 4.69-0.28 1.9-0.15 2.46 0.3 1.23s3.05-3.43 5.78-4.89zm32.74-8.55c-0.38-6.09-3.12-7.63-9.37-5.25-10.78 4.09-8.5 9.33 4.22 9.66 4.41 0.12 5.38-0.72 5.15-4.41zm9.63 2.53c0.69-1.11-0.67-2.02-3.03-2.02s-3.72 0.91-3.03 2.02c1.6 2.59 4.46 2.59 6.06 0zm45.51-6.19c0-1.17-0.91-1.58-2.02-0.89-2.6 1.6-2.6 3.04 0 3.04 1.11 0 2.02-0.97 2.02-2.15zm-133.48-1.9c0-1.11-0.91-2.02-2.02-2.02s-2.02 0.91-2.02 2.02 0.91 2.02 2.02 2.02 2.02-0.91 2.02-2.02zm42.47 0c0-1.11-0.96-2.02-2.14-2.02s-1.58 0.91-0.89 2.02c1.6 2.59 3.03 2.59 3.03 0zm2.5-18.63c1.21-3.63-0.68-11.71-2.73-11.71-0.99 0-1.79-0.91-1.79-2.02s0.68-1.91 1.52-1.78c0.83 0.13 2.88 0.12 4.55-0.03 2.48-0.22 2.53-0.59 0.28-2.02-3.11-1.96-10.4-0.62-10.4 1.93 0 0.91 0.82 2.17 1.83 2.79 1 0.62 1.52 4.31 1.16 8.21-0.46 4.9 0.18 7.08 2.05 7.08 1.5 0 3.08-1.1 3.53-2.45zm63.08 0.19c-0.84-1.37-8.95-0.04-8.95 1.46 0 0.42 2.21 0.57 4.91 0.35s4.52-1.04 4.04-1.81zm-37.27-9.87c0-2.63-5.45-2.63-7.07 0-0.69 1.11 0.62 2.02 2.91 2.02s4.16-0.91 4.16-2.02z"/>
    <path id="path2404" fill='#2d6a4f' d="m103.19 134.69c-0.68 0-1.44 0.03-2.28 0.06-3.813 0.16-6.739 0.63-6.472 1.06 0.266 0.43-0.236 0.78-1.126 0.78-0.889 0-1.339 0.45-1 1 0.34 0.55 0.115 1-0.5 1-0.614 0-0.839 0.45-0.5 1 0.351 0.57-0.486 1-1.937 1-1.407 0-2.563 0.25-2.563 0.57 0 1.07 2.631 3.22 4.563 3.72 1.675 0.42 1.641 0.49-0.313 0.59-2.595 0.13-2.944 1.61-0.687 2.87 0.948 0.53-0.871 0.72-4.656 0.44-4.441-0.32-5.97-0.12-5.469 0.69 0.684 1.11-1.252 1.61-4.438 1.15-0.824-0.11-1.174 0.11-0.781 0.5 1.268 1.29-1.135 4.45-2.875 3.79-1.109-0.43-1.477-0.18-1.156 0.78 0.26 0.78 1.79 1.4 3.406 1.4 1.605 0.01 3.273 0.55 3.719 1.25s1.234 1.04 1.75 0.72 0.937-0.08 0.937 0.56c0 0.73-0.663 0.9-1.75 0.44-3.844-1.61-5.96-1.63-6.562-0.06-0.463 1.21 0.011 1.59 2.031 1.59 2.554 0 2.582 0.06 0.719 1.47-1.068 0.81-2.725 1.49-3.688 1.5-2.057 0.04-2.394 2.03-0.343 2.03 0.766 0 1.637 0.63 1.937 1.41 0.325 0.85 1.326 1.21 2.5 0.91 1.329-0.35 2.371 0.18 3.125 1.59 1.412 2.64 2.637 2.68 3.313 0.09 0.349-1.33 1.062-1.81 2.125-1.4 1.786 0.68 2.164 2.4 0.531 2.4-0.582 0-0.777 0.45-0.438 1 0.34 0.55-0.103 1-1 1-2.109 0-4.805 2.7-4 4 0.343 0.56 0.194 1-0.343 1-0.538 0-1.805 0.31-2.813 0.69-1.745 0.66-1.761 0.62-0.094-1.06 1.809-1.83 2.372-3.12 0.969-2.25-0.439 0.27-1.424 0.1-2.187-0.38-1.123-0.69-1.144-1.14-0.125-2.37 0.692-0.84 1.896-1.27 2.687-0.97 1.006 0.39 1.245 0.06 0.813-1.06-0.718-1.87-1.991-2.08-2.969-0.5-0.44 0.71-1.536 0.18-3.094-1.5-1.329-1.44-2.918-2.6-3.531-2.6s-0.308 0.9 0.687 2c2.743 3.03 1.65 2.74-7.25-1.87-2.337-1.21-4.25-1.72-4.25-1.16 0 1.42-2.739 1.31-3.218-0.12-0.213-0.64-1.274-1.35-2.344-1.53-4.936-0.87-8.438-0.88-8.438-0.03 0 0.5-0.621 0.67-1.406 0.37-2.136-0.82-7.697 1.57-7.125 3.06 0.496 1.29-0.545 1.64-3.75 1.31-0.974-0.09-1.702 0.21-1.625 0.66 0.078 0.45 0.04 1.15-0.094 1.56-0.423 1.31-0.745 2.72-0.874 3.88-0.086 0.76-0.612 0.7-1.688-0.19-0.948-0.79-1.845-0.94-2.25-0.37-0.371 0.52-2.038 1.43-3.688 2-2.132 0.73-2.958 1.65-2.906 3.18 0.041 1.19-0.297 1.91-0.75 1.63s-0.844 0.19-0.844 1.03c0 1.22-0.506 1.35-2.5 0.59-2.143-0.81-2.5-0.66-2.5 1.03 0 1.09-0.672 1.97-1.5 1.97-0.8245 0-1.4995 0.45-1.4995 1s0.5625 1 1.2495 1c0.982 0.02 0.969 0.21-0.031 0.85-1.9819 1.26-2.4077 5.15-0.5622 5.15 1.1822 0 1.4182 0.62 0.9062 2.66-0.5577 2.22-0.4485 2.5 0.719 1.53 0.772-0.64 1.768-0.84 2.218-0.44 0.451 0.41 0.529 0.22 0.157-0.43s-0.215-1.47 0.343-1.82c0.559-0.34 1 0.08 1 0.94s0.433 1.56 0.938 1.56 1.696 0.29 2.656 0.66c1.191 0.46 1.524 0.3 1.032-0.5-1.081-1.75 0.498-1.39 1.812 0.41 1.18 1.61 5.014 0.98 4-0.66-0.3-0.49 0.178-0.61 1.031-0.28 0.854 0.33 1.531 0.14 1.531-0.41s0.694-1.27 1.532-1.59c1.242-0.48 1.332-0.21 0.468 1.4-1.47 2.75 0.184 2.47 2.969-0.5 1.276-1.35 2.689-2.26 3.125-2 0.436 0.27 1.246-0.3 1.813-1.28 0.567-0.97 1.046-1.21 1.062-0.56 0.017 0.66-0.367 1.43-0.843 1.72-1.635 1.01-0.049 5.16 2.031 5.31 1.451 0.11 1.846-0.26 1.406-1.4-0.529-1.38-0.371-1.43 1.094-0.22 1.255 1.03 1.793 1.08 2.093 0.19 0.28-0.83 1.126-0.9 2.75-0.29 1.79 0.68 2.476 0.52 2.938-0.68 0.55-1.44 0.774-1.46 2.344-0.03 1.928 1.74 5.815 0.47 4.594-1.5-0.405-0.66-0.224-0.81 0.468-0.38 0.635 0.39 1.156 0.17 1.156-0.5 0-0.74 0.827-0.49 2.094 0.66 1.15 1.04 2.612 1.93 3.25 1.96 3.084 0.18 7.403 1.95 9.656 3.94 1.376 1.22 3.963 3.21 5.75 4.44 1.788 1.23 3.25 2.62 3.25 3.09 0 1.74-3.99 2.14-5.562 0.57-0.863-0.87-1.989-1.62-2.5-1.69s-1.388-0.24-1.938-0.38c-0.55-0.13-1.457-0.3-2.031-0.37s-0.911-0.91-0.75-1.88c0.204-1.21-0.484-1.86-2.219-2.09-1.374-0.18-2.914-0.75-3.437-1.25-1.211-1.17-2.84-1.19-2.125-0.03 0.538 0.87-2.679 1.36-7.438 1.12-7.357-0.36-12.391 0.24-13.812 1.66-0.733 0.73-2.219 1.34-3.312 1.34-1.094 0-1.715 0.45-1.376 1 0.34 0.55-0.11 1-1 1-0.889 0-1.339 0.45-1 1 0.34 0.55-0.11 1-1 1-0.97 0-1.335 0.47-0.906 1.16 0.479 0.77 0.077 0.99-1.218 0.66-2.044-0.54-4.822 1.63-3.938 3.06 0.286 0.46-0.642 1.33-2.031 1.97-1.389 0.63-2.253 1.58-1.938 2.09s0.122 1.19-0.437 1.53c-1.622 1.01-1.178 2.81 0.531 2.16 0.943-0.36 1.303-0.21 0.906 0.44-0.358 0.58 0.106 1.64 1.063 2.34 1.624 1.19 1.642 1.3 0.062 1.91-1 0.38-1.455 0.24-1.094-0.35 0.337-0.54-0.051-0.97-0.874-0.97-0.894 0-1.437 0.81-1.344 2.03 0.124 1.66 0.743 2.01 3.187 1.79 1.669-0.16 3.282-0.59 3.563-0.97 0.28-0.38 1.743-1 3.25-1.38 3.295-0.82 3.772 1.07 0.531 2.1-1.991 0.63-2.022 0.79-0.5 1.9 0.919 0.67 1.341 1.58 0.937 2-0.403 0.43 0.216 0.46 1.407 0.1 1.191-0.37 2.471-0.21 2.812 0.34 0.701 1.13 5.531-0.67 5.531-2.06 0-0.46 1.688-0.57 3.75-0.22 2.063 0.34 4.313 0.53 5 0.4 0.688-0.12 3.838-0.28 7-0.37 3.163-0.09 6.033-0.53 6.376-1 0.823-1.13 9.1 2.56 13.718 6.13 2.019 1.56 5.788 4.04 8.375 5.53 4.905 2.81 7.808 6.05 7.781 8.65-0.008 0.9-0.32 1.12-0.75 0.53-0.404-0.55-1.65-1.5-2.75-2.09s-2.424-2.06-2.968-3.25-1.444-2.01-2-1.81-2.157-0.05-3.532-0.56c-4.141-1.55-8.371-1.78-9.281-0.5-0.649 0.91-1.007 0.86-1.437-0.22-1.131-2.86-8.465-9.37-10.844-9.63-1.339-0.15-2.438 0.15-2.438 0.66s-1.199 0.64-2.656 0.28c-1.864-0.47-2.436-0.34-1.937 0.47 0.882 1.43 0.055 1.46-2.5 0.09-1.472-0.79-2.766-0.66-5.094 0.5-1.714 0.86-3.763 1.56-4.563 1.56-0.971 0-1.226 0.58-0.781 1.75 0.515 1.36 0.393 1.48-0.531 0.57-0.922-0.92-1.528-0.88-2.594 0.18-0.76 0.76-1.284 1.75-1.187 2.19s-0.195 1.61-0.625 2.6c-0.431 0.98-0.504 2.05-0.188 2.37 0.903 0.9-2.206 3.55-3.344 2.84-0.558-0.34-1.404 0.42-1.874 1.69-0.471 1.27-1.12 2.2-1.469 2.06-0.35-0.13-1.614-0.25-2.781-0.25-1.694 0-1.885 0.28-0.969 1.38 0.884 1.06 0.818 1.52-0.344 1.97-0.83 0.32-1.267 1.22-0.969 2 0.641 1.67 5.416 1.91 5.438 0.28 0.008-0.64 0.374-0.54 0.875 0.25 0.59 0.93 1.751 1.17 3.562 0.72 1.82-0.46 2.484-0.33 2.031 0.4-0.368 0.6-0.123 1.75 0.532 2.53 1.392 1.68 4.582 0.39 6.781-2.71 1.183-1.67 1.484-1.68 2.875-0.29 1.189 1.19 1.863 1.27 2.938 0.38 0.766-0.64 1.37-0.76 1.374-0.28 0.011 1.16 4.89 3.35 7.469 3.37 1.128 0.01 2.674 0.44 3.469 0.94 0.879 0.56 2.155 0.54 3.219-0.03 1.32-0.71 2.342-0.35 4.156 1.47 2.74 2.74 4.093 5.62 2.656 5.62-0.532 0-0.969-0.45-0.969-1s-1.125-1-2.5-1c-1.374 0-2.5 0.5-2.5 1.13 0 0.62-1.177-0.05-2.624-1.5-1.793-1.79-3.387-2.48-5-2.19-1.303 0.24-2.376-0.04-2.376-0.59 0-1.08-2.484-3.85-3.437-3.85-0.314 0-0.563 0.57-0.563 1.25 0.001 0.86-1.647 1.22-5.25 1.13-4.867-0.13-9.495 1.53-8.124 2.91 0.325 0.32-0.335 0.32-1.469 0.03-1.216-0.32-2.757 0.16-3.75 1.15-1.102 1.1-2.439 1.45-3.813 1-1.155-0.37-3.894-0.84-6.094-1.03s-5.012-0.6-6.25-0.91c-1.334-0.33-2.25-0.1-2.25 0.57 0 0.62-0.661 0.87-1.468 0.56-0.808-0.31-1.729-0.13-2.063 0.41s-1.3287 0.87-2.1872 0.72c-0.8927-0.16-1.6739 0.53-1.8438 1.62-0.1634 1.04-0.9009 2.24-1.625 2.69-5.1555 3.18-5.9051 4.47-3.0625 5.22 1.2056 0.31 0.9723 0.49-0.75 0.59-2.4548 0.15-2.4639 0.17-0.5 1.69 2 1.55 2 1.57 0 1.37-3.2445-0.31-4.5-0.03-4.5 1.03 0 0.55 1.155 1 2.5625 1 1.4514 0 2.288 0.44 1.9375 1-0.33992 0.55 0.2884 1 1.375 1s2.1913-0.56 2.4687-1.25c0.3637-0.9 0.5369-0.92 0.5938-0.06 0.0434 0.66-0.3875 1.47-0.9375 1.81-1.7659 1.1-1.0676 2.66 0.9063 2.03 1.4343-0.45 2.298 0.16 3.4374 2.44 0.8336 1.67 1.1018 3.03 0.5938 3.03-0.5078 0-0.9375 0.71-0.9375 1.57 0 0.85 0.45 1.27 1 0.93 0.5495-0.34 0.9995-0.11 0.9995 0.5 0 0.62 0.45 0.84 1 0.5s1.563-0.27 2.25 0.16c0.688 0.43 3.436 0.82 6.094 0.91 4.031 0.12 4.963-0.17 5.594-1.88 0.664-1.79 0.816-1.67 1.375 1.13 0.655 3.27 2.687 4.45 2.687 1.56 0-1.32 0.293-1.41 1.5-0.41 1.23 1.02 1.647 0.79 2.469-1.37 1.145-3.01 1.888-3.37 1.688-0.85-0.101 1.28 0.453 1.67 2.093 1.44 1.348-0.19 2.517 0.32 2.876 1.25 0.33 0.86 1.043 1.56 1.593 1.56s0.748-0.66 0.438-1.47c-0.31-0.8-0.134-1.76 0.406-2.09s0.87-0.01 0.719 0.72c-0.175 0.84 0.502 1.22 1.875 1.03 1.189-0.16 2.481 0.24 2.875 0.88 0.926 1.5-1.635 3.09-3.063 1.9-0.693-0.57-1.549-0.24-2.375 0.91-1.313 1.82-6.094 1.82-6.094 0 0-1.53-1.414-0.97-4.25 1.65-1.506 1.4-2.75 2.24-2.75 1.88s-0.681-0.08-1.531 0.62c-0.85 0.71-1.334 1.86-1.062 2.57 0.304 0.79-0.046 1.08-0.907 0.75-1.039-0.4-1.286 0.14-0.937 2.06 0.269 1.48 0.03 2.59-0.594 2.59-0.662 0-0.82 0.88-0.406 2.25 0.555 1.84 0.414 2.02-0.656 1-1.852-1.76-3.409-1.56-1.907 0.25 1.041 1.26 0.899 1.5-0.874 1.5-2.247 0-2.714 0.96-1.219 2.53 0.496 0.53 1.058 1.85 1.25 2.91 0.302 1.68 1.253 1.95 7.125 2.03 5.114 0.08 6.651-0.22 6.281-1.18-0.562-1.47 1.583-1.29 2.687 0.21 0.449 0.61 0.741 0.49 0.75-0.31 0.009-0.72 0.45-1.03 1-0.69s1 0.08 1-0.56 0.675-0.91 1.5-0.59c1.779 0.68 1.846 0.26 0.438-2.66-1.019-2.11-1.002-2.12 0.5-0.25 0.855 1.07 1.562 2.98 1.562 4.25 0 1.48 0.626 2.36 1.75 2.44 0.963 0.07 2.73 0.21 3.938 0.34s2.435-0.35 2.719-1.09c0.283-0.74 1.178-1.09 1.969-0.78 0.79 0.3 1.745 0.02 2.124-0.6 0.508-0.82 1.033-0.79 2.032 0.03 0.747 0.62 3.514 1.23 6.156 1.35s6.95 1.21 9.562 2.44c2.613 1.22 6.213 2.51 8 2.84 2.143 0.39 5.372 2.63 9.438 6.59 6.166 6.02 6.165 6.02 7.344 14.13 0.648 4.46 1.003 10.13 0.812 12.59l-0.344 4.47-3.156-2.97c-1.744-1.63-3.473-4.03-3.844-5.31-0.605-2.1-0.482-2.23 1.344-1.25 2.527 1.35 4.192 1.4 2.156 0.06-1.333-0.87-1.333-1.08 0-2.03 1.174-0.83 0.956-0.95-1-0.5-2.451 0.56-2.439 0.54-0.25-0.59 1.761-0.91 2.097-1.7 1.594-3.75-0.35-1.44-1.035-2.76-1.5-2.94s-0.844-0.98-0.844-1.78-0.56-1.35-1.25-1.19c-0.689 0.16-2.601-0.66-4.25-1.81-1.648-1.16-3.9-2.18-5-2.28-4.893-0.46-7.597-0.07-9.843 1.4-2.422 1.59-4.646 1.67-5.719 0.22-0.633-0.85-5.461-1.17-8.156-0.53-0.942 0.22-2.517 1.31-3.5 2.38-1.296 1.41-2.815 1.85-5.532 1.62-2.062-0.17-3.75-0.67-3.75-1.09 0-0.99-6.17-1.06-7.5-0.1-0.55 0.4-3.566 0.43-6.718 0.07-6.499-0.76-9.153 0.19-8.282 2.93 0.471 1.49 0.175 1.72-1.5 1.29-1.146-0.3-1.994-0.14-1.906 0.34 0.462 2.52-0.258 4.37-1.687 4.37-1.048 0-1.392 0.55-1 1.57 0.461 1.2 0.124 1.42-1.407 0.93-2.28-0.72-2.338-0.56-1.031 2.88 0.803 2.11 0.68 2.42-0.656 1.91-1.081-0.42-1.44-0.15-1.125 0.81 0.256 0.77 1.393 1.55 2.531 1.72 1.139 0.16 2.314 1.18 2.594 2.25 0.533 2.03 3.687 2.73 3.687 0.81 0-0.61 0.739-0.81 1.626-0.47 1.224 0.47 1.447 0.18 0.937-1.16-0.538-1.41-0.416-1.5 0.594-0.5 1.631 1.62 3.191 1.62 2.219 0-0.55-0.91-0.314-0.9 0.874 0.07 1.993 1.61 1.884 5.18-0.156 5.18-1.104 0-1.213 0.29-0.375 1.13 1.359 1.36 10.84 1.72 14.125 0.53 2.08-0.75 2.277-0.61 1.688 1.25-0.734 2.31-0.336 2.51 2.25 1.22 0.955-0.48 3.134-1.32 4.875-1.88 2.776-0.89 3.233-0.77 3.687 0.97 0.285 1.09 1.007 1.68 1.594 1.31 0.587-0.36 1.062-0.14 1.062 0.47 0 0.62 0.426 0.85 0.938 0.53 0.512-0.31 1.214-0.09 1.562 0.47 0.403 0.65 1.162 0.47 2.094-0.47 0.806-0.8 2.129-1.18 2.938-0.87 1.744 0.67 1.831-0.02 0.406-2.97-0.958-1.98-0.91-2.03 0.375-0.44 1.79 2.22 2.833 2.27 2 0.1-0.408-1.06-0.258-1.43 0.437-1 0.6 0.37 1.764-0.02 2.594-0.85 2.084-2.08 2.408-1.94 3.156 1.47 0.524 2.39 1.105 2.92 2.844 2.6 1.196-0.23 2.873-0.46 3.75-0.5 2.264-0.11 1.823-4.68-0.625-6.47-3.635-2.66-0.471-2.97 6.313-0.63 3.705 1.28 8.262 3.44 10.125 4.82l3.371 2.53-0.59 13.09c-0.319 7.2-0.88 14.11-1.25 15.34-0.673 2.25-0.652 2.25 11.75 2.25h12.41l-0.03-14.75c-0.04-10.56 0.45-17.3 1.78-23.75 2.14-10.46 5.92-18 8.5-16.97 0.91 0.37 2.22 0.88 2.9 1.16 0.73 0.3 1.27-0.25 1.28-1.34 0.02-1.43 0.21-1.55 0.88-0.5 0.73 1.15 0.93 1.15 1.4 0 0.44-1.05 0.96-0.89 2.26 0.65 1.17 1.41 1.82 1.63 2.15 0.75 0.26-0.69 0.88-1.01 1.41-0.68 0.52 0.32 1.57 0.08 2.31-0.54 1.01-0.83 1.71-0.77 2.72 0.19 1.97 1.89 6.84 3.89 6.84 2.81 0-0.5-0.42-1.19-0.97-1.53-0.62-0.38-0.53-1.09 0.25-1.93 0.77-0.83 1.47-0.99 1.85-0.38 0.34 0.54 1.75 1.07 3.12 1.16 1.78 0.11 2.34 0.59 1.94 1.65-0.47 1.26-0.31 1.28 1.03 0.19 1.08-0.87 1.82-0.95 2.25-0.25 0.36 0.58 1.11 1.06 1.66 1.06s0.69-0.51 0.31-1.12c-0.46-0.75 0.01-0.86 1.44-0.41 1.27 0.4 2.12 0.24 2.12-0.4 0-0.72 0.66-0.67 1.97 0.15 1.58 0.99 2.23 0.97 3.25-0.06 1.04-1.05 0.96-1.56-0.53-2.66-1.73-1.28-1.71-1.37 0.5-1.68 1.28-0.19 2.36-0.99 2.44-1.82 0.29-3.21 0.44-3.45 1.25-2.18 0.45 0.72 2.93 1.44 5.5 1.62 3.87 0.27 4.63 0.04 4.4-1.31-0.18-1.11 0.32-1.53 1.57-1.31 1.11 0.19 1.61-0.11 1.22-0.75-0.4-0.64 0.2-1.07 1.5-1.07 1.77 0 1.95-0.28 1-1.43-0.98-1.18-0.79-1.31 1.12-0.82 2.07 0.54 2.18 0.42 0.94-1.09-0.76-0.93-2.11-1.58-3-1.44-0.89 0.15-1.52-0.3-1.38-1s-0.87-1.78-2.25-2.4c-1.38-0.63-2.5-1.5-2.5-1.94 0-0.45-0.66-0.57-1.5-0.25-0.83 0.32-3.65-0.33-6.25-1.44-5.28-2.26-10.57-2.92-14.03-1.78-1.43 0.47-2.89 0.29-3.84-0.5-1.14-0.94-1.69-0.98-2.22-0.12-1.01 1.63-7.33 2-7.88 0.46-0.24-0.68 0.4-1.55 1.41-1.9 1.01-0.36 3.39-1.33 5.31-2.16 1.93-0.83 3.95-1.38 4.5-1.22 0.55 0.17 2.8 0.46 5 0.63 2.2 0.16 4 0.36 4 0.43 0 0.2 3.64 0.97 6.25 1.35 2.53 0.37 2.85-0.36 1-2.31-1.03-1.09-0.86-1.12 0.94-0.19 3.28 1.68 5.66 1.34 7.72-1.06 1.73-2.02 1.76-2.23 0.19-3.38-1.27-0.93-1.39-1.36-0.41-1.72 0.8-0.29 0.25-0.95-1.44-1.75-2.82-1.33-3.5-2.57-1.75-3.15 0.55-0.19-0.14-1.64-1.53-3.25-2.3-2.68-3.11-2.95-9-3-3.56-0.04-6.47 0.25-6.47 0.65s-1.35 0.46-3 0.13c-2.16-0.44-3.01-0.21-3.03 0.78-0.02 0.95-0.46 0.78-1.44-0.5-0.77-1.03-2.83-1.96-4.59-2.1-1.76-0.13-3.62-1-4.13-1.9-1.15-2.06-2.94-2.17-2.15-0.13 0.49 1.28 0.11 1.26-2.41-0.18l-3-1.72 5.13-1.78c2.82-0.98 12.1-5.38 20.62-9.79 8.53-4.4 16.53-8.02 17.75-8.03 1.23 0 3.99-0.72 6.16-1.59 3.09-1.24 4.41-1.3 6.09-0.41 1.58 0.85 2.48 0.83 3.47 0 0.93-0.77 1.55-0.78 2-0.06 0.92 1.49 5.16 1.31 6.75-0.28 0.74-0.74 2.12-1.24 3.09-1.09 1.34 0.19 1.62-0.22 1.16-1.66-0.46-1.45-0.23-1.74 0.97-1.28 1.15 0.44 1.42 0.14 0.97-1.03-0.41-1.08-0.06-1.6 1.03-1.6 1.48 0 1.48-0.23 0.09-2.34-0.84-1.28-1.24-2.63-0.87-3s0.19-0.66-0.44-0.66c-0.62 0-0.88-0.67-0.56-1.5 0.4-1.04-0.09-1.5-1.59-1.5-1.19 0-3.3-1.13-4.69-2.53-1.78-1.78-3.17-2.36-4.6-1.9-1.27 0.4-1.8 0.26-1.4-0.38 0.75-1.22-1.97-4.19-3.85-4.19-0.72 0-1.59-1.12-1.93-2.5-0.4-1.58-1.35-2.5-2.57-2.5-1.05 0-2.14-0.39-2.43-0.87-0.3-0.48-1.74-0.88-3.19-0.88s-2.96-0.54-3.38-1.22c-0.59-0.95-1.25-0.98-2.96-0.06-1.83 0.98-2.58 0.86-4.29-0.65-1.49-1.33-2.18-1.47-2.5-0.57-0.24 0.69-0.94 1.25-1.56 1.25-0.82 0-0.82-0.3 0-1.12 0.62-0.62 0.94-1.66 0.69-2.31-0.54-1.41 10.85-12.59 12.78-12.54 0.73 0.02 0.19 0.68-1.19 1.44l-2.5 1.38 2.63 1c1.55 0.59 4.09 0.67 6.25 0.18 2.06-0.46 3.87-0.44 4.19 0.07 0.3 0.49 0.01 0.9-0.66 0.9-0.68 0-0.98 0.27-0.66 0.6 0.33 0.32 1.55 0.28 2.72-0.1 1.81-0.57 1.95-0.89 0.84-2.25s-0.93-1.37 1.29 0.07c2.52 1.64 2.61 1.63 3.78-0.94 1.01-2.23 0.91-2.97-0.6-4.69-1.67-1.91-1.67-2-0.03-1.4 0.96 0.35 1.75 0.22 1.75-0.29 0-1.48-3.1-2.79-5.28-2.21-1.68 0.43-1.92 0.16-1.44-1.69 0.4-1.53 0.06-2.42-1.09-2.85-0.92-0.33-2.03-1.2-2.47-1.93s-1.45-1.32-2.22-1.32c-0.76 0-1.97-0.81-2.69-1.81-2.04-2.83-3.74-3.46-5.59-2.09-0.94 0.69 0.1-0.53 2.31-2.69s4.69-5 5.54-6.31c1.32-2.07 1.84-2.23 3.71-1.22 1.67 0.89 2.64 0.87 4.13-0.06 1.54-0.96 2.28-0.92 3.53 0.12 0.87 0.72 1.56 1.93 1.56 2.69 0 1.72 2.19 1.79 3.88 0.12 1.02-1 1.19-0.97 0.93 0.13-0.17 0.75 0.25 1.56 0.94 1.81 0.81 0.3 1.05-0.1 0.66-1.12-0.34-0.88-0.13-2.19 0.47-2.91 0.71-0.86 0.78-2.4 0.22-4.37-0.71-2.47-0.59-3.01 0.65-2.91 2.67 0.21 2.51-2.26-0.18-2.94-1.5-0.37-2.57-1.36-2.57-2.34 0-0.93-0.53-2.25-1.19-2.91-0.93-0.93-0.71-1.19 1-1.19 1.22 0 2.19-0.45 2.19-1s-0.67-1-1.5-1c-0.82 0-1.5-0.67-1.5-1.5 0-0.82-0.37-1.5-0.84-1.5-0.48 0-3.15-2.1-5.94-4.68-4.34-4.02-5.72-4.75-9.62-4.94-2.51-0.12-4.84 0.2-5.16 0.72-0.97 1.57-2.26 0.01-1.72-2.07 0.48-1.82 0.67-1.83 2.91-0.37 2.42 1.59 3.21 0.73 1.37-1.47-0.72-0.87-0.65-0.91 0.22-0.19 1.55 1.3 3.08 1.3 2.28 0-0.34-0.55-0.11-1 0.5-1 0.62 0 0.84-0.45 0.5-1-0.35-0.56 0.08-0.71 0.97-0.37 2.19 0.84 1.99-2.28-0.22-3.56-1.08-0.63-1.24-1.02-0.44-1.04 0.72-0.01 1.03-0.47 0.69-1.03-0.41-0.66-1.27-0.66-2.56 0.03-1.39 0.75-1.94 0.73-1.94-0.09 0-0.63-0.68-0.89-1.53-0.56-0.9 0.35-1.47 0.07-1.37-0.66 0.42-3.28-0.11-3.92-2.66-3.28-1.68 0.42-2.39 0.27-1.97-0.41 0.36-0.58-0.21-1.03-1.34-1.03-1.1 0-2.28-0.47-2.63-1.03-0.34-0.56-1.02-0.76-1.5-0.47-0.47 0.3-1.15 0.07-1.5-0.5-0.35-0.56-1.05-0.78-1.56-0.47-0.51 0.32-0.94 0.21-0.94-0.24 0-0.46-1.98-0.83-4.4-0.82-2.43 0.02-4.34 0.48-4.25 1.03s-0.64 0.85-1.6 0.69-1.75 0.18-1.75 0.75c0 0.58-0.67 1.06-1.5 1.06-2.2 0-1.83 1.68 0.5 2.29 1.1 0.28 1.98 1.13 1.94 1.87-0.06 1.01-0.21 1.03-0.59 0.09-0.28-0.68-1.55-1.25-2.82-1.25-2.58 0-7.78 2.41-6.96 3.22 0.28 0.29-0.59 0.53-1.94 0.53-1.53 0-2.29-0.46-2-1.22 0.3-0.79-0.65-1.25-2.72-1.31-1.75-0.05-3.67-0.6-4.28-1.22-0.82-0.82-0.63-0.94 0.78-0.4 1.33 0.51 1.72 0.38 1.22-0.44-0.4-0.64-1.51-1.18-2.44-1.19-1.44-0.01-1.47-0.14-0.22-0.94 1.21-0.76 1.02-1.13-1-1.93-1.36-0.55-1.86-1-1.12-1.03 2.26-0.11 0.67-2.42-1.78-2.6-1.28-0.09-2.74-0.96-3.29-1.94-0.81-1.44-1.18-1.52-1.9-0.4-0.69 1.06-1.03 0.86-1.5-0.88-0.34-1.23-1.05-2.25-1.6-2.25-0.54 0-0.7 0.7-0.37 1.57 0.43 1.12 0.09 1.46-1.16 1.18-0.96-0.21-1.63-0.96-1.47-1.68 0.2-0.9-0.28-1.09-1.5-0.6-0.98 0.4-2.36 0.96-3.09 1.25-0.76 0.31-1.24-0.05-1.12-0.84 0.41-3-0.12-4.69-1.66-5.28-1.19-0.46-1.46-0.2-1 1 0.65 1.68-0.93 1.67-7.41-0.1-1.93-0.52-2.16-0.42-1 0.41 1.25 0.89 1.13 1.05-0.72 1.06-1.66 0.01-2.04-0.38-1.56-1.62 0.52-1.34 0.18-1.55-1.69-1.06-1.73 0.45-2.01 0.32-1.15-0.54 2-2 1.26-2.7-3.5-2.65zm-16.94 8.9c-0.857 0-1.277 0.45-0.938 1 0.34 0.55 1.045 1 1.563 1s0.937-0.45 0.937-1-0.705-1-1.562-1zm45.56 4c0.55 0 1 0.45 1 1s-0.45 1-1 1-1-0.45-1-1 0.45-1 1-1zm4.81 1.47c0.1-0.04 0.26-0.02 0.47 0.06 0.7 0.27 1.82 1.38 2.5 2.47 1.81 2.9-0.24 2.45-2.15-0.47-0.82-1.25-1.1-1.94-0.82-2.06zm-52.87 1.1c0.298-0.03 0.821 0.04 1.562 0.18 1.38 0.27 2.5 0.6 2.5 0.75 0 1.07-3.063 1.12-3.937 0.07-0.533-0.65-0.621-0.95-0.125-1zm51.37 0.43c0.37 0.06 0.81 0.37 1.16 0.94 0.32 0.51 0.16 1.16-0.34 1.47s-1.16-0.08-1.47-0.91c-0.39-1.01 0.04-1.59 0.65-1.5zm-58.214 2.13c0.348-0.02 0.733 0.04 1.094 0.19 0.798 0.32 0.571 0.54-0.594 0.59-1.054 0.04-1.645-0.2-1.312-0.53 0.166-0.17 0.465-0.24 0.812-0.25zm-7.094 5.87c-0.55 0-1 0.45-1 1s0.45 1 1 1 1-0.45 1-1-0.45-1-1-1zm75.848 1c0.45 0 0.84 0.68 0.84 1.5 0 1.7-0.07 1.74-1 0.82-0.93-0.94-0.84-2.32 0.16-2.32zm-12.32 5.07c0.6-0.13 1.73 0.42 3.44 1.62 1.9 1.33 2.28 1.37 1.84 0.22-0.42-1.12 0.39-1.46 3.57-1.53 2.27-0.05 3.56 0.1 2.87 0.34-0.68 0.24-1.25 0.98-1.25 1.63 0 0.64-0.79 1.66-1.78 2.28-1.41 0.88-2.29 0.73-4.12-0.75-1.28-1.03-2.93-1.88-3.69-1.88-0.77 0-1.41-0.45-1.41-1 0-0.54 0.18-0.86 0.53-0.93zm-59.059 0.96c0.276 0 0.636 0.33 1.031 0.97 0.34 0.55 0.145 1-0.437 1s-1.063-0.45-1.063-1c0-0.64 0.193-0.97 0.469-0.97zm-41.531 0.97c-0.582 0-0.777 0.45-0.438 1 0.792 1.29 1.5 1.29 1.5 0 0-0.55-0.48-1-1.062-1zm57.125 2.03c0.525 0 0.937 0.33 0.937 0.97 0 0.55-0.705 1-1.562 1s-1.277-0.45-0.938-1c0.4-0.64 1.038-0.97 1.563-0.97zm52.215 1c0.19 0.01 0.52 0.42 1.13 1.22 0.73 0.97 2.26 1.75 3.4 1.75 1.15 0 2.35 0.45 2.69 1s1.08 1 1.63 1 0.71-0.45 0.37-1c-0.77-1.24-0.29-1.25 2.94-0.03 1.7 0.65 2.56 0.64 2.56-0.03s0.65-0.66 1.94 0.03c1.31 0.71 2.14 0.69 2.56 0 0.35-0.56 1.05-0.75 1.57-0.44 0.51 0.32 0.93 0.13 0.93-0.43 0-0.57 0.68-0.79 1.5-0.47 0.83 0.32 1.5 1.01 1.5 1.53s-0.4 0.72-0.9 0.41c-1.74-1.07-4.25 0.64-3.75 2.56 0.48 1.86-0.4 2.48-1.69 1.19-1.98-1.98-11.51 0.48-10.19 2.62 0.3 0.48-0.4 0.64-1.53 0.35-1.51-0.4-2.18 0.02-2.59 1.59-0.31 1.17-0.99 2.12-1.5 2.12-0.52 0-0.65 0.48-0.28 1.07 0.36 0.58 1.37 0.78 2.28 0.43 1.05-0.4 1.29-0.29 0.65 0.32-2.06 1.95-5.47 2.37-6.09 0.75-0.33-0.87-1.43-1.57-2.44-1.57s-2.13-0.45-2.47-1-1.6-1.06-2.81-1.12c-1.69-0.09-1.79-0.21-0.44-0.56 0.96-0.26 1.75-0.9 1.75-1.44s0.43-0.76 0.94-0.44 1.2 0.16 1.53-0.37c0.33-0.54 1.35-0.69 2.25-0.35 1.25 0.48 1.47 0.22 0.97-1.09-0.36-0.95-0.25-1.47 0.25-1.16 1.33 0.82 6.17-1.63 5.75-2.9-0.2-0.6-0.75-1.09-1.25-1.1-1.78-0.03-3.44-1.61-3.41-3.28 0.02-0.78 0.07-1.16 0.25-1.16zm31.72 0.97c0.55 0 1 0.7 1 1.57 0 2.48-2.47 4.52-3.84 3.15-1.58-1.57-1.44-2.72 0.34-2.72 0.83 0 1.5-0.45 1.5-1s0.45-1 1-1zm9.22 0.03c0.14 0.02 0.35 0.31 0.69 0.85 0.51 0.8 1.42 1.05 2.16 0.59 0.84-0.52 1-0.38 0.5 0.44-0.42 0.67-1.39 0.98-2.16 0.69-0.77-0.3-1.41-0.19-1.41 0.25s-0.63 0.81-1.4 0.81c-0.78 0-1.16-0.58-0.88-1.31s0.92-1.09 1.41-0.78c0.49 0.3 0.9-0.03 0.9-0.75 0.01-0.52 0.06-0.8 0.19-0.79zm-4.75 0.97c0.9 0 1.26 0.59 0.91 1.5-0.75 1.94-2.38 1.94-2.38 0 0-0.82 0.66-1.5 1.47-1.5zm-53.19 7.13c0.16-0.03 0.62 0.38 1.5 1.19 1.03 0.93 2.14 1.45 2.44 1.15s0.81 0.11 1.13 0.94 0.22 1.76-0.22 2.03c-1.11 0.69-3.71-1.52-4.53-3.87-0.33-0.92-0.47-1.41-0.32-1.44zm-110.34 0.87c-0.582 0-0.777 0.45-0.438 1 0.792 1.29 1.5 1.29 1.5 0 0-0.55-0.48-1-1.062-1zm105.81 1.35c0.17 0 0.37 0.01 0.56 0.03 2.72 0.29 4.69 1.38 4.69 2.59 0 0.48-1.57 0.82-3.5 0.72-2.53-0.13-3.49-0.65-3.5-1.87 0-1.02 0.56-1.48 1.75-1.47zm-6.09 2.09c0.33-0.01 0.59 0.14 0.81 0.5 0.36 0.58-0.16 1.33-1.16 1.66-3.67 1.19-3.96 1.18-3.96-0.16 0-0.75 0.39-1.11 0.87-0.81s1.5 0.03 2.25-0.6c0.47-0.39 0.86-0.58 1.19-0.59zm-22.032 0.72c0.281-0.08 0.306 0.15 0.031 0.59-0.831 1.35 0.236 4.25 1.562 4.25 0.55 0 0.708-0.77 0.344-1.71-0.484-1.27 0.083-1.06 2.125 0.74 4.65 4.12 5.8 6.97 2.812 6.97-0.824 0-1.5 0.64-1.5 1.41 0 0.91-0.7 1.21-2 0.88-1.353-0.36-2-0.04-2 1 0 1.03-0.631 1.35-2 1-1.549-0.41-1.884-0.16-1.406 1.09 0.342 0.89 1.603 1.66 2.782 1.72 2.071 0.09 2.072 0.12 0.124 0.75-1.108 0.36-1.952 1.22-1.874 1.9 0.077 0.69 0.181 1.7 0.25 2.25 0.068 0.55 0.605 1 1.187 1s0.777-0.45 0.437-1c-0.937-1.51 1.864-1.19 4.063 0.47 2.564 1.94 4.015 1.91 2.406-0.03-1.041-1.25-1.03-1.77 0.031-2.75 0.838-0.78 1.068-0.79 0.658-0.06-0.35 0.62 0.05 1.69 0.87 2.37 1.19 0.99 1.78 0.99 2.97 0 1.31-1.08 1.5-0.51 1.5 4.38 0 3.09-0.1 5.62-0.25 5.62-0.14 0-1.48-1.12-2.97-2.5-1.48-1.37-3.366-2.5-4.215-2.5s-1.563-0.45-1.563-1-0.705-1-1.562-1-1.277 0.45-0.938 1c0.34 0.55-0.08 1-0.937 1s-1.563-0.45-1.563-1-0.831-1-1.843-1c-1.175 0-2.796-1.77-4.5-4.9-2.215-4.07-2.508-5.39-1.657-7.63 0.856-2.25 1.45-2.59 3.563-2.06 2.061 0.52 2.495 0.32 2.25-1.12-0.185-1.1 0.242-1.69 1.094-1.5 1.071 0.22 1.262-0.63 0.843-3.76-0.316-2.36-0.118-4.3 0.5-4.68 0.148-0.09 0.282-0.16 0.376-0.19zm13.562 1.94c0.17-0.01 0.3 0.01 0.38 0.09 0.2 0.21-0.22 2.3-0.91 4.66l-1.25 4.28-1.22-2.6c-0.66-1.43-1.19-3.05-1.19-3.56 0-0.86 3.03-2.81 4.19-2.87zm58.19 4.28c0.36 0.01 0.62 0.42 0.62 1.06 0 1.76-0.58 2.01-1.43 0.63-0.32-0.52-0.13-1.22 0.43-1.57 0.14-0.08 0.26-0.13 0.38-0.12zm13.19 0c0.33-0.1 0.6 0.07 0.87 0.5 0.41 0.66 0.2 1.85-0.47 2.65-2.53 3.05-4 1.25-1.62-2 0.48-0.66 0.88-1.05 1.22-1.15zm-18.97 1.62c0.56-0.06 1.34 0.7 1.68 2 0.65 2.48-1.48 2.68-3.4 0.32-0.94-1.15-0.98-1.45-0.13-0.94 0.69 0.41 1.25 0.27 1.25-0.31 0-0.7 0.26-1.03 0.6-1.07zm9.93 0.44c0.31 0 0.92 0.11 1.85 0.28 2.63 0.51 2.76 0.78 2.15 4.16-0.35 1.99-1.08 5.31-1.62 7.37-0.54 2.07-1.13 3.75-1.31 3.75-0.35 0-1.6-8.35-1.6-10.65 0-0.75 0.68-1.35 1.5-1.35 1.99 0 1.91-1-0.22-2.56-0.94-0.69-1.25-0.99-0.75-1zm-92.152 0.13c0.522-0.07 1.098 0.59 1.656 2.03 0.618 1.59 1.956 4.59 2.968 6.65 2.204 4.49 1.635 4.63-3 0.78-2.753-2.28-3.42-3.5-3.156-5.71 0.286-2.4 0.86-3.67 1.532-3.75zm5.218 0.78c0.14 0.03 0.33 0.14 0.532 0.34 0.79 0.79 0.769 1.65 0 2.97-0.941 1.62-1.068 1.46-1.094-1.13-0.017-1.61 0.142-2.28 0.562-2.18zm82.314 0.59c0.21-0.02 0.46 0.06 0.72 0.31 0.33 0.34 0.39 1.18 0.15 1.88-0.33 1.01-0.55 1.02-1.18 0-0.63-1.01-0.32-2.12 0.31-2.19zm-93.626 0.06c0.833 0 1.777 0.68 2.094 1.5 0.743 1.94-0.768 1.94-2.376 0-1.013-1.22-0.952-1.5 0.282-1.5zm-4.594 1c0.655 0 1.473 0.45 1.812 1 0.768 1.25 0.422 1.25-1.5 0-0.901-0.58-1.028-0.99-0.312-1zm-18.219 0.03c0.276 0 0.636 0.33 1.031 0.97 0.34 0.55 0.145 1-0.437 1s-1.063-0.45-1.063-1c0-0.64 0.193-0.97 0.469-0.97zm130.72 1.32c0.35-0.04 0.51 0.31 0.66 1.03 0.38 1.91 2.15 2.2 2.15 0.34 0-0.7 0.85-1.28 1.88-1.28 1.62 0 1.74 0.41 0.93 3.31-0.98 3.56-4.61 10.25-5.56 10.25-0.31 0-1.49-0.78-2.59-1.75-1.9-1.66-1.95-1.66-1.35 0 0.36 0.97 0.16 1.75-0.43 1.75-1.99 0 0.07-10.31 2.47-12.37 0.96-0.83 1.49-1.25 1.84-1.28zm13.72 0.94c1.14-0.1 1.03 0.63 0.56 3.43-0.41 2.47-1.71 4.74-3.75 6.53-5.28 4.65-6.64 3.15-3.56-3.9 2.51-5.76 1.77-4.94 5.15-5.75 0.7-0.17 1.22-0.28 1.6-0.31zm-31.47 0.03c0.2 0 0.59 0.12 1.19 0.34 2.6 0.98 4.3 3.4 4.34 6.13 0.02 1.25 0.69 3.81 1.47 5.68 1.3 3.11 1.28 3.36-0.25 2.82-0.92-0.33-2.14-0.97-2.72-1.41-1.21-0.93-5.47-0.02-5.47 1.15 0 0.44-0.97 0.53-2.15 0.22-1.32-0.34-2.58 0.02-3.25 0.94-0.81 1.1-1.75 1.28-3.44 0.66-1.28-0.48-2.75-0.59-3.25-0.28-0.5 0.3-1.9-0.15-3.13-1-2.49-1.75-5.78-2.09-5.78-0.6 0 0.63-0.88 0.65-2.5 0.03-1.38-0.52-3.9-0.79-5.59-0.59-1.89 0.22-2.7-0.02-2.13-0.59 1.18-1.18 4.11-1.38 6.88-0.47 1.33 0.43 2.65 0.19 3.5-0.66 0.75-0.75 1.91-1.16 2.59-0.94 0.69 0.23 1.25-0.07 1.25-0.65s0.68-0.79 1.5-0.47c0.83 0.32 1.5 0.05 1.5-0.6 0-0.64 0.44-0.89 0.97-0.56 0.54 0.33 1.28-0.54 1.63-1.94 0.35-1.39 1.07-2.53 1.59-2.53s0.62 0.49 0.25 1.1c-0.42 0.68 0.02 0.95 1.19 0.72 1.03-0.21 2.37 0.25 2.97 1.03 0.91 1.19 1.45 1.19 3.5 0.06 1.33-0.74 2.86-1.36 3.4-1.38 1.52-0.05 1.81-3.44 0.44-5.09-0.64-0.77-0.83-1.12-0.5-1.12zm45.19 5.06c-0.36 0.01-0.63 0.42-0.63 1.06 0 0.86 0.45 1.56 1 1.56 1.3 0 1.3-1.7 0-2.5-0.13-0.08-0.25-0.13-0.37-0.12zm-46.16 1.65c-0.27 0-0.47 0.33-0.47 0.97 0 0.55 0.48 1 1.07 1 0.58 0 0.77-0.45 0.43-1-0.39-0.64-0.75-0.97-1.03-0.97zm-35.59 2.97c1.44 0 1.74 0.56 1.37 2.5-0.69 3.64-3.25 3.09-3.25-0.68 0-1.12 0.74-1.82 1.88-1.82zm-4.16 1.29c0.18 0.03 0.29 0.18 0.28 0.4-0.01 0.45-0.46 1.49-1 2.31-0.83 1.3-0.95 1.27-0.97-0.18 0-0.93 0.42-1.98 0.97-2.32 0.28-0.17 0.54-0.25 0.72-0.21zm-7.41 0.74c0.4 0.04 0.84 0.35 1.22 0.97 0.35 0.56 1.02 0.76 1.54 0.44 0.51-0.32 0.93 0.33 0.93 1.41 0 1.07-0.69 2.19-1.56 2.53-1.9 0.73-1.68 0.75-3.16-0.19-0.68-0.43-0.95-1.72-0.62-2.97 0.38-1.47 1-2.24 1.65-2.19zm-10.28 6.97c0.09-0.03 0.55 0.29 1.47 0.97 1.1 0.81 2.21 1.6 2.44 1.75 0.23 0.16-0.08 0.28-0.66 0.28-0.57 0-1.65-0.78-2.4-1.75-0.64-0.81-0.93-1.21-0.85-1.25zm-74.496 4c0.807 0 1.468 0.68 1.468 1.5 0 1.94-1.598 1.94-2.343 0-0.351-0.91-0.02-1.5 0.875-1.5zm66.218 0c0.55 0 1.505 0.57 2.094 1.29 0.796 0.95 0.573 1.59-0.875 2.5-1.172 0.73-1.969 0.82-1.969 0.21 0-0.55 0.508-1 1.126-1 0.775 0 0.735-0.46-0.126-1.5-0.694-0.83-0.807-1.5-0.25-1.5zm-19.593 4.1c0.131-0.1 0.533 0.25 1.312 1 1.073 1.02 1.582 2.79 1.375 4.84l-0.344 3.22-3-3.19c-2.831-3.01-2.872-3.17-0.656-2.5 2.109 0.65 2.29 0.49 1.656-1.62-0.327-1.09-0.474-1.65-0.343-1.75zm11.781 0.28c0.199-0.02 0.489 0.01 0.844 0.06 0.955 0.14 1.884 1 2.062 1.91 0.444 2.27-1.526 2.09-2.781-0.25-0.626-1.17-0.721-1.65-0.125-1.72zm-24.656 0.72c0.084-0.09 0.35 0.13 0.844 0.62 0.683 0.68 0.995 1.51 0.687 1.81-0.308 0.31-0.874-0.26-1.25-1.24-0.271-0.72-0.366-1.11-0.281-1.19zm17.875 0.28c0.306-0.1 0.706 0.08 1.25 0.53 0.6 0.5 1.543 0.93 2.093 0.94s1.621 0.95 2.376 2.09c1.203 1.81 1.162 2.06-0.313 2.06-0.925 0-1.435 0.37-1.156 0.82s0.701 2.02 0.969 3.5c0.563 3.1-0.07 3.3-2.969 0.87-1.241-1.04-2.294-3.44-2.625-5.9-0.412-3.08-0.299-4.69 0.375-4.91zm-12.531 1.65c0.62-0.01 1.69 0.65 2.374 1.47 1.581 1.91 0.932 1.92-1.562 0.03-1.068-0.8-1.433-1.48-0.812-1.5zm-9.282 0.16c0.206 0.03 0.485 0.24 0.844 0.6 0.651 0.65 0.94 1.4 0.656 1.68-0.667 0.67-1.844-0.51-1.844-1.84 0-0.31 0.138-0.46 0.344-0.44zm-12.062 0.88c0.256 0.01 0.808 0.17 1.718 0.43 1.376 0.4 2.947 1.11 3.469 1.6 1.687 1.57-1.862 0.9-3.969-0.75-1.214-0.96-1.645-1.31-1.218-1.28zm137.82 2.93c0.59 0-0.32 1.78-2.03 3.94-1.98 2.5-3.87 3.88-5.16 3.78-2.33-0.17-2.56-0.46-2.47-3.22 0.04-1.29 0.88-2.1 2.34-2.31 1.25-0.18 2.01-0.74 1.69-1.25-0.75-1.21 0.2-1.19 2.6 0.09 1.33 0.72 1.93 0.72 1.93 0 0-0.56 0.5-1.03 1.1-1.03zm-17.1 2c0.55 0 1 0.45 1 1s-0.45 1-1 1-1-0.45-1-1 0.45-1 1-1zm29.44 3c-0.86 0-1.25 0.44-0.91 1 0.35 0.56 1.02 0.76 1.54 0.44 1.38-0.86 1.13-1.44-0.63-1.44zm-101 1.25c0.25 0.02 0.563 0.37 1.094 1.1 0.86 1.17 2.058 1.49 4.218 1.06 1.748-0.35 3.298-0.16 3.688 0.47 0.42 0.67 0.1 0.86-0.84 0.5-3.099-1.19-5.624 4.61-3.129 7.19 1.819 1.87 4.749 2.51 6.159 1.34 1.14-0.95 1.26-0.33 0.78 3.72-0.32 2.68-0.76 5.44-0.97 6.12-0.57 1.85-2.23 1.51-3.41-0.68-0.77-1.44-0.64-2.3 0.44-3.38 1.27-1.27 1.22-1.65-0.34-3.06-1.984-1.79-3.588-2.18-2.628-0.63 0.34 0.55 0.363 1 0.032 1-1.203 0-6.355-12.25-5.782-13.75 0.261-0.68 0.438-1.01 0.688-1zm-5.5 1.75c0.582 0 1.062 0.45 1.062 1 0 1.29-0.708 1.29-1.5 0-0.339-0.55-0.144-1 0.438-1zm26.59 8.22c0.21 0 0.45 0.01 0.72 0.03 3.24 0.35 3.82 1.75 1.69 4.04-1.4 1.5-1.59 2.44-0.84 3.84 1.15 2.15 2.53 2.42 3.28 0.62 0.61-1.47 3.86 2.06 3.34 3.63-0.45 1.36-4.95 1.58-6.53 0.31-0.96-0.77-1.59-0.67-2.25 0.38-0.59 0.93-0.9-1.08-0.91-5.82-0.01-6.05 0.04-7.03 1.5-7.03zm40.35 0.78c0.61 0 1.12 0.44 1.12 1s1.15 0.82 2.57 0.57c1.52-0.28 2.42-0.04 2.21 0.59-0.53 1.59-7.26 3.62-11.25 3.37-1.94-0.11-3.53 0.14-3.53 0.6s-1.1 0.77-2.43 0.66c-2.48-0.21-2.57-1.79-0.1-1.79 0.75 0 1.58-0.56 1.81-1.25 0.34-0.97 1.1-1 3.57-0.09 2.67 0.99 3.15 0.93 3.15-0.37 0-1.27 0.28-1.33 1.53-0.29 1.98 1.65 3.15 0.51 1.5-1.47-0.86-1.04-0.92-1.53-0.15-1.53zm11.93 3c0.27-0.07 0.53-0.01 0.72 0.19 0.21 0.21-0.01 0.96-0.46 1.69-0.54 0.86-1.03 0.95-1.44 0.28-0.46-0.74 0.39-1.94 1.18-2.16zm-32.56 1.25c0.15-0.11 0.39 0.21 0.82 0.94 0.61 1.06 1.64 1.48 2.71 1.1 1.29-0.47 1.11 0.13-0.75 2.31-4.26 4.99-4.34 5.02-3.68 2.4 0.34-1.37 0.66-3.62 0.68-5 0.02-1.07 0.07-1.63 0.22-1.75zm-104.25 1.85c0.331 0 0.677 0.17 1 0.5 0.648 0.65 0.296 0.97-1 0.97-1.295 0-1.616-0.32-0.968-0.97 0.324-0.33 0.638-0.5 0.968-0.5zm99.968 0.4c0.17 0.02 0.37 0.06 0.63 0.16 1.1 0.42 1.32 1.42 0.84 3.72-0.36 1.72-0.93 3.42-1.28 3.78-1.24 1.26-5.16-2.39-5.16-4.81 0-2.08 0.28-2.27 1.94-1.38 2.64 1.42 3.38 1.28 2.72-0.44-0.28-0.73-0.19-1.07 0.31-1.03zm72.13 1.63c0.34-0.02 0.73 0.04 1.09 0.19 0.8 0.32 0.57 0.54-0.59 0.59-1.06 0.04-1.65-0.2-1.32-0.53 0.17-0.17 0.47-0.24 0.82-0.25zm-106.72 0.12c0.142-0.04 0.514 0.23 1.218 0.82 0.934 0.77 1.165 1.51 0.563 1.72-0.58 0.19-0.772 1.06-0.438 1.93 0.499 1.3 0.127 1.44-2.125 0.88-1.623-0.41-2.528-0.3-2.187 0.25 0.317 0.51-0.475 1.2-1.781 1.53-3.079 0.77-8.949 6.26-8.126 7.59 0.35 0.57 0.194 1.03-0.343 1.03-0.538 0-1.693 0.26-2.563 0.6-2.211 0.85-2.042-1.68 0.532-7.66 1.167-2.71 2.772-4.94 3.562-4.94 0.883 0 1.149-0.48 0.688-1.25-0.47-0.78-0.106-0.71 1 0.19 1.145 0.93 2.032 1.07 2.468 0.41 0.95-1.45 5.047-2.34 5.719-1.25 0.982 1.59 2.686 0.95 2.031-0.75-0.271-0.71-0.361-1.06-0.218-1.1zm45.282 0.07c0.93 0 0.88 1.34-0.59 2.62-1.13 0.98-2.07 2.32-2.07 2.94s-0.48 1.12-1.09 1.12-0.85 0.68-0.53 1.5c0.64 1.67-0.9 2.08-1.88 0.5-0.6-0.97 2.89-6.8 4.91-8.18 0.51-0.36 0.94-0.51 1.25-0.5zm-61.751 3.68c0.498 0 0.662 0.9 0.375 2-0.671 2.57-1.282 2.57-1.282 0 0-1.1 0.408-2 0.907-2zm-5.5 1.25c0.169 0 0.39 0.14 0.687 0.44 0.602 0.6 0.939 1.85 0.75 2.78-0.445 2.2-1.844 0.8-1.844-1.84 0-0.92 0.125-1.36 0.407-1.38zm-40.531 0.75c-0.55 0-0.715 0.45-0.376 1 0.34 0.55 1.075 1 1.626 1 0.55 0 0.714-0.45 0.374-1-0.339-0.55-1.074-1-1.624-1zm160.4 13.03c0.44 0.04 0.84 0.34 1.19 0.91 0.32 0.52-0.29 1.42-1.37 2-2.84 1.52-3.31 1.32-2.1-0.94 0.72-1.34 1.55-2.03 2.28-1.97zm14.1 0.16c0.07-0.02 0.16-0.02 0.25 0.06 0.33 0.34 0.35 1.22 0.06 1.94-0.32 0.8-0.55 0.54-0.59-0.62-0.04-0.79 0.07-1.3 0.28-1.38zm-23.72 1c0.14-0.09 0.25 0.2 0.28 0.84 0.04 0.85-1.31 2.35-3 3.35-3.06 1.81-3.06 1.81-1.75-0.28 0.72-1.16 1.82-2.1 2.47-2.1s1.41-0.56 1.69-1.25c0.12-0.31 0.22-0.51 0.31-0.56zm-14.91 3.06c0.28 0.01 0.61 0.12 1 0.28 0.96 0.41 2.84 0.67 4.16 0.6 2.38-0.14 2.39-0.12 0.5 1.97-1.05 1.16-4.55 3.46-7.78 5.09l-5.85 2.97 3.35-4.09c2.61-3.18 3.87-3.98 5.62-3.57 1.24 0.3 2.25 0.06 2.25-0.5 0-0.93-1.4-1.41-3.25-1.12-0.41 0.06-0.75-0.39-0.75-1 0-0.42 0.29-0.63 0.75-0.63zm-5.9 3.94c0.09 0.02 0.15 0.13 0.15 0.34 0.03 1.62-8.22 9.17-10.75 9.85-1.24 0.33-3.15 0.87-4.25 1.19-1.09 0.31-2 0.17-2-0.32 0-1.39 2.94-4.88 2.97-3.53 0.02 0.7 0.72 0.94 1.63 0.6 0.99-0.39 1.39-1.34 1.06-2.6-0.29-1.1 0.18-2.67 1.03-3.53 1.4-1.4 1.62-1.39 2.47 0.13 1.14 2.04 3.02 2.25 2.25 0.25-0.41-1.06 0.01-1.27 1.62-0.85 1.32 0.35 2.54 0 3.07-0.84 0.3-0.48 0.58-0.71 0.75-0.69zm-155.88 3.78c0.2232-0.11 0.8693 0.25 1.8438 1.22 0.933 0.93 1.187 0.9 1.187-0.12 0-1.07 0.296-1.07 1.5-0.07 0.826 0.69 1.5 1.58 1.5 2 0 1.92-2.786 1.55-4.7182-0.62-1.2079-1.36-1.5995-2.27-1.3126-2.41zm56.031 0.03c1.38 0 1.269 2.33-0.187 3.79-0.933 0.93-0.904 1.21 0.125 1.21 1.044 0 1.048 0.29 0.094 1.44-1.261 1.52-0.631 3.56 1.094 3.56 0.55 0 0.714-0.45 0.374-1-0.339-0.55-0.144-1 0.438-1s1.062 0.44 1.062 1c0 1.29 5.235 0.11 6.25-1.4 0.452-0.68 0.741-0.42 0.75 0.65 0.022 2.47 1.666 2.19 2.344-0.4 0.478-1.83 0.816-2 2.125-0.91 0.853 0.71 1.531 2.16 1.531 3.19 0 1.76-1.666 2.3-6.656 2.16-0.645-0.02-1.439 0.98-1.75 2.21-0.614 2.45-4.306 3.13-6.125 1.13-3.735-4.11-5.6-7.92-5.031-10.19 0.339-1.35 1.054-2.44 1.594-2.44 0.539 0 0.968-0.67 0.968-1.5 0-0.82 0.45-1.5 1-1.5zm67.628 3.07c0.62-0.05 1.69 0.61 2.37 1.43 1.69 2.04 5.98 1.9 7.66-0.25 0.78-0.99 0.47 0.64-0.72 3.75-2.48 6.51-2.64 6.7-4.09 5.25-1.41-1.4-5.85 1.23-5.85 3.47 0 1.07-0.36 1.23-1.25 0.53-1.97-1.55-4.67-1.09-5.31 0.91-0.32 1.01-1.02 1.84-1.56 1.84-0.55 0-0.72 0.45-0.38 1s-0.1 1-1 1-1.47-0.56-1.28-1.25c1.19-4.22 5.13-16.33 5.44-16.68 0.2-0.24 1.08 0.44 1.94 1.5 1.04 1.3 1.69 1.55 2.03 0.75 0.27-0.66 1.15-0.96 1.94-0.66 0.78 0.3 1.43 0.09 1.43-0.47s-0.56-1.25-1.25-1.53c-0.78-0.32-0.83-0.54-0.12-0.59zm-29.35 1.31c0.1-0.04 0.28 0.14 0.53 0.5 0.57 0.8 1.52 1.05 2.26 0.59 0.94-0.58 1.1-0.17 0.62 1.63-0.35 1.32-0.65 4.32-0.66 6.65-0.01 5.07-1.15 5.3-4.996 1.1-1.799-1.97-3.432-2.91-4.406-2.53-0.901 0.34-1.978-0.14-2.563-1.13-0.682-1.15-1.262-1.34-1.781-0.59-1.756 2.51-7.282 0.69-7.282-2.41 0-1.27 0.323-1.19 1.594 0.38 0.866 1.06 1.286 1.37 0.938 0.68-0.856-1.69 1.985-1.62 8.062 0.22 6.134 1.86 6.404 1.88 6.404-0.03 0-0.86 0.46-1.26 1.03-0.91 0.68 0.42 0.85-0.37 0.44-2.21-0.27-1.24-0.34-1.87-0.19-1.94zm13.69 0.94c0.31-0.04 0.73 0.08 1.28 0.25 1.24 0.38 2.42 0.84 2.63 1.03 0.21 0.18-0.78 3.39-2.19 7.12l-2.56 6.78-0.06-7.81c-0.05-5.74-0.04-7.26 0.9-7.37zm18 0.9c-1.06 0.04-1.96 0.95-1.4 1.85 0.31 0.51 0.95 0.93 1.43 0.93 1.4 0 2.15-1.81 1.03-2.5-0.33-0.2-0.71-0.29-1.06-0.28zm-113.5 0.81c0.276 0 0.636 0.33 1.031 0.97 0.34 0.55 0.145 1-0.437 1s-1.063-0.45-1.063-1c0-0.64 0.193-0.97 0.469-0.97zm33.813 1.07c0.089-0.08 0.37 0.15 0.875 0.65 1.627 1.62 3.162 1.62 2.343 0-0.348-0.68 0.091-0.36 0.969 0.72 0.878 1.09 1.35 2.6 1.063 3.35-0.287 0.74-0.532 1.81-0.532 2.37 0 0.57-0.648 0.77-1.437 0.47s-1.577-0.17-1.75 0.31-1.547-0.01-3.063-1.12c-2.996-2.2-2.799-3.85 0.438-3.85 1.538 0 1.875-0.43 1.375-1.75-0.267-0.7-0.37-1.08-0.281-1.15zm-28.282 4.9c-0.55 0-1 0.45-1 1s0.45 1 1 1 1-0.45 1-1-0.45-1-1-1zm34.282 0.1c0.084-0.09 0.35 0.13 0.844 0.62 0.683 0.68 0.995 1.51 0.687 1.81-0.308 0.31-0.874-0.26-1.25-1.24-0.271-0.72-0.366-1.11-0.281-1.19zm80.656 15.4l0.03 2.69c0.02 1.47-0.57 3.26-1.31 4s-1.51 1.91-1.75 2.63c-0.24 0.71-0.76 0.96-1.16 0.56-1.41-1.41-0.72-4.29 1.72-7.06l2.47-2.82zm3.56 0.07c0.29-0.04 0.54 0.39 0.78 1.34 0.3 1.15 0.16 2.09-0.31 2.09-1.36 0-1.89-1.48-1.03-2.87 0.22-0.35 0.39-0.54 0.56-0.56zm-49.279 0.75c0.152 0 0.647 0.28 1.531 0.81 1.238 0.75 2.25 1.71 2.25 2.12 0 0.42 0.675 0.75 1.498 0.75 0.83 0 1.44-0.33 1.38-0.75-0.44-2.76 0.23-3.52 1.53-1.75 1.57 2.15 1.03 13.54-0.69 14.66-0.55 0.36-0.71 1.37-0.37 2.25 0.33 0.88 0.15 1.59-0.38 1.59-1.42 0-1.18 2.77 0.28 3.25 0.69 0.23 1.29 1.6 1.32 3.07 0.06 3.88-1.06 3.27-2.44-1.35-0.67-2.21-2.984-7.69-5.159-12.18-2.522-5.22-3.611-8.55-3-9.16 0.612-0.61 1.516-0.47 2.5 0.34 1.267 1.05 1.531 1.01 1.531-0.15 0-0.79-0.562-2.03-1.25-2.75-0.491-0.52-0.683-0.76-0.531-0.75zm25.719 0.09c0.83 0 1.91 0.05 3.28 0.12 3.32 0.2 6.22 0.57 6.47 0.82s-0.23 1.79-1.06 3.4c-1.07 2.06-2.19 2.87-3.78 2.75-1.25-0.09-3.32 0.88-4.6 2.16s-2.46 2.34-2.62 2.34c-1.6 0-2.15-5.38-1-9.65 0.39-1.46 0.81-1.93 3.31-1.94zm-37.188 3.59c1.815 0 5.399 4.85 7.344 9.97 1.1 2.9 1.88 5.41 1.719 5.56-0.393 0.39-7.063-5.57-8.75-7.81-1.149-1.52-1.099-1.96 0.406-3.06 1.649-1.21 1.639-1.39 0.063-2.97-0.926-0.92-1.275-1.69-0.782-1.69zm77.598 1.35c0.25 0.04 0.14 0.24-0.35 0.53-2.43 1.45-6.64 2.5-5.5 1.37 0.55-0.54 2.35-1.27 4-1.62 0.98-0.21 1.59-0.32 1.85-0.28zm-90.066 1.03c0.299 0 0.564 0.34 0.968 1.06 0.488 0.87 1.293 1.32 1.813 1s1.233 0.14 1.563 1c0.329 0.86 1.051 1.56 1.593 1.56s2.102 0.9 3.5 2c3.148 2.48 2.246 2.47-4.406-0.09-3.688-1.42-5.051-2.44-4.656-3.47 0.306-0.8 0.077-1.44-0.531-1.44-0.609 0-1.126 0.52-1.126 1.16s-0.271 0.88-0.624 0.53c-0.354-0.35-0.069-1.34 0.656-2.22 0.601-0.72 0.95-1.09 1.25-1.09zm71.066 0.12c0.36-0.07 1.06 0.07 2.12 0.47 1.36 0.52 2.69 0.58 2.97 0.13 0.28-0.46 1.7-0.59 3.16-0.31 2.28 0.43 2.41 0.61 0.93 1.43-2.63 1.48-6.05 1.59-7.87 0.25-1.52-1.11-1.91-1.84-1.31-1.97zm-123.88 1.53c-0.276 0-0.469 0.33-0.469 0.97 0 0.55 0.481 1 1.063 1s0.777-0.45 0.437-1c-0.395-0.64-0.755-0.97-1.031-0.97zm42.938 0.32c0.251 0.03 0.613 0.25 1.062 0.62 0.801 0.67 1.902 0.93 2.438 0.6 0.536-0.34 1.248-0.16 1.593 0.4 0.346 0.56-0.192 0.98-1.187 0.94-2.636-0.12-4.313-0.94-4.313-2.12 0-0.33 0.155-0.47 0.407-0.44zm72.841 14.18c0.27 0.02 0.74 0.3 1.25 0.82 2.14 2.13 1.86 3.31-0.75 3.22-1.58-0.06-2.34 0.56-2.56 2.09-0.17 1.2-1.04 2.77-1.94 3.5-1.41 1.15-1.53 1.09-0.94-0.5 0.38-1.01 0.69-2.96 0.69-4.34 0-1.67 0.67-2.69 2-3.03 1.1-0.29 2-0.95 2-1.47 0-0.2 0.09-0.29 0.25-0.29zm-14.59 2.19c1.76 0.06 4.34 1.85 3.78 3.28-0.32 0.83-1.48 5.55-2.56 10.5-1.09 4.95-2.38 10.8-2.88 13-0.64 2.87-0.84-0.12-0.65-10.53 0.14-7.99 0.58-15.03 0.96-15.65 0.27-0.44 0.76-0.62 1.35-0.6zm-35.22 21.85c0.675-0.01 1.864 0.12 3.781 0.34 0.393 0.05 1.23 1.04 1.844 2.19 0.614 1.14 0.963 2.19 0.781 2.34-0.833 0.7-5.479-1.65-6.5-3.28-0.73-1.17-1.032-1.58 0.094-1.59zm-52.156 1.53c0.084-0.09 0.35 0.13 0.844 0.62 0.683 0.68 0.995 1.51 0.687 1.81-0.308 0.31-0.874-0.26-1.25-1.24-0.271-0.72-0.366-1.11-0.281-1.19zm-15.406 4.9c-1.252 0-1.068 1.37 0.343 2.79 1.605 1.6 1.673 1.55 1.063-0.79-0.288-1.1-0.921-2-1.406-2z"/>

    <path id="path2652" fill='#2d6a4f' d="m634.27 18.401l-0.13 2.438c-0.05 1.341-0.16 5.386-0.25 9l-0.12 6.562-3.69-3.812c-4.26-4.438-4.83-4.615-4.81-1.563 0.01 1.238 1.74 4.144 3.84 6.469 3.36 3.724 3.83 4.898 4.03 9.844 0.15 3.734-0.14 5.402-0.84 4.969-0.58-0.359-1.03-1.302-1.03-2.094 0-0.793-0.45-1.438-1-1.438s-1-1.742-1-3.875c0-4.438-2.52-7.54-4.1-5.062-0.5 0.79-0.71 1.965-0.46 2.625 0.53 1.457-2.35 0.507-4.29-1.406-0.72-0.719-1.89-1.282-2.62-1.282-2.71 0-2.26 2.821 1.03 6.594 3.92 4.488 4.13 5.383 1.53 6.063-1.27 0.333-1.71 1.11-1.37 2.406 0.56 2.152 3.24 2.535 5.06 0.719 1.36-1.362 1.4-1.29 1.62 2.468 0.2 3.137 0.02 3.208-3.4 1.25-3.35-1.916-4-1.868-4 0.407 0 1.06 1.46 3.069 3.25 4.468 2.44 1.909 2.71 2.415 1.12 2-1.38-0.36-2.32-0.001-2.72 1.032-0.86 2.243-1.55 2.058-8.21-2.282-3.27-2.129-6.44-3.696-7.04-3.468-2.08 0.797-0.76 4.614 2.16 6.218l2.94 1.594-2.69 0.313c-1.47 0.175-2.9 0.94-3.19 1.687-0.56 1.462 1.94 2.895 3.44 1.969 0.5-0.309 0.94-0.083 0.94 0.5 0 0.582 0.79 1.081 1.75 1.125 1.27 0.057 1.36 0.222 0.34 0.625-1.06 0.42-0.85 0.986 0.91 2.312l2.34 1.75-4.19 0.719c-4.3 0.728-5.29 2.335-2.71 4.469 0.96 0.804 1.99 0.884 3.12 0.25 1.89-1.056 5.44-0.465 5.44 0.906 0 0.486 0.9 0.906 2 0.906s2-0.45 2-1 1.01-0.987 2.25-0.968l2.25 0.031-2.47 2.031c-1.92 1.596-2.16 2.218-1.09 2.875 1.5 0.928 4.09 0.25 5.37-1.406 0.46-0.599 0.59 0.152 0.25 1.687-0.5 2.29-0.27 2.75 1.41 2.75 1.11 0 2.05-0.562 2.09-1.25 0.05-0.853 0.25-0.8 0.63 0.157 0.4 1.023 0.91 0.744 1.84-1l1.28-2.407 1.25 2.75c0.69 1.509 0.93 3.068 0.53 3.469-0.4 0.402-3.98 0.893-7.97 1.094-6.66 0.336-7.63 0.135-12.03-2.656-4.38-2.78-7.59-3.245-7.59-1.094 0 0.473 1.24 1.577 2.75 2.437l2.75 1.563-3.5-0.656c-3.46-0.634-9.29-3.634-11.85-6.125-0.72-0.708-2.18-1.282-3.25-1.282-2.03 0-2.56 1.934-0.96 3.532 0.6 0.6-0.94 1.084-4.19 1.281-2.83 0.172-5.53 0.539-5.97 0.812-3.29 2.033 4.81 5.723 10.69 4.875l4.03-0.562-2.81 1.594c-1.71 0.962-2.71 2.262-2.5 3.282 0.48 2.44 4.8 1.62 7.56-1.44 1.28-1.424 3.01-2.358 4-2.124 1.38 0.329 1.2 0.661-0.91 1.534-3.4 1.4-4.44 3.05-2.37 3.84 0.89 0.34 1.39 1.2 1.12 1.91s0.18 1.54 0.97 1.84 1.44 0.16 1.44-0.31c0-0.82 3.23-2.22 5.65-2.47 0.64-0.07 2.1-0.99 3.25-2.03s2.1-1.56 2.1-1.16c0 1.04-2.19 3.08-4.78 4.47-1.23 0.66-2.22 1.64-2.22 2.19 0 1.89 3.08 2.18 4.97 0.47 1.8-1.64 1.86-1.62 1.34 0.37-0.76 2.92 1.28 2.63 3.31-0.47 1.27-1.93 1.89-2.24 2.53-1.25 0.7 1.08 0.98 1.07 1.69-0.03 0.48-0.73 1.71-1.22 2.75-1.09 4.04 0.51 9.34-3.09 9.5-6.47 0.09-1.82 0.19-1.766 0.81 0.41 0.6 2.06 0.11 3.06-2.84 5.72-1.96 1.76-6.35 4.67-9.75 6.46l-6.19 3.25-4.81-2.4c-2.65-1.32-5.37-2.5-6.06-2.63-1.79-0.34-1.55 1.6 0.5 4 1.57 1.86 1.56 1.91 0.03 0.72-0.94-0.72-2.09-1.07-2.56-0.78-0.48 0.29-2.12-0.11-3.66-0.91-3.68-1.91-4.83-1.81-4.16 0.32 0.45 1.41-0.02 1.72-2.43 1.65-1.65-0.05-3.23-0.35-3.53-0.65-1.22-1.22-4.44 0.57-4.44 2.47 0 1.53 0.48 1.88 2.09 1.46 2.01-0.52 2.02-0.47 0.35 1.38-1.81 2-1.52 2.27 2.28 1.97 1.74-0.14 2.1 0.19 1.59 1.53-0.54 1.41-0.19 1.64 1.88 1.25 2.07-0.4 2.42-0.16 2.03 1.34-0.54 2.05 0.1 2.27 2.59 0.94 2.45-1.3 5.55 2.84 3.53 4.72-1.13 1.05-1.47 1.01-1.9-0.13-0.3-0.78-2.08-1.42-4.04-1.5-1.92-0.07-3.26 0.27-2.96 0.75 0.29 0.49-0.34 0.64-1.44 0.35-2.53-0.66-2.61 0.86-0.13 2.4 1.32 0.82 1.72 1.92 1.38 3.72-0.61 3.17-0.76 3.19-4.44 0.1-1.63-1.38-3.62-2.5-4.41-2.5-1.67 0-1.76 0.49-0.46 2.9 1.05 1.96 0.39 2.01-7.19 0.57-2.47-0.48-3.75-0.34-3.75 0.37 0 1.29 5.19 4.16 7.56 4.16 1.37 0 1.45 0.25 0.44 1.47-1 1.19-0.96 1.61 0.22 2.06 0.8 0.31 1.88 0.47 2.37 0.37 2.09-0.39 3.39 0.18 3.16 1.35-0.16 0.76 0.81 1.22 2.5 1.18 2.11-0.04 2.75 0.42 2.78 2 0.03 1.98 0.11 1.96 2-0.31 1.56-1.87 1.97-2.01 1.97-0.69 0 0.92 0.45 1.41 1 1.07s1.43 0.54 1.97 1.97c0.54 1.42 1.66 2.83 2.5 3.15 0.83 0.32 1.53 1.2 1.53 1.97s0.72 1.41 1.62 1.41c0.91 0 2.21 0.76 2.91 1.72 1.2 1.63 1.42 1.62 3.62-0.25l2.35-1.97-1.78 2.09c-1.08 1.28-4.41 2.73-8.63 3.75-8.8 2.13-10.93 2.06-14.53-0.31-3.33-2.2-4.96-1.79-4.06 1.03 0.5 1.58 0.12 1.94-2.25 1.94-1.58 0-3.32-0.45-3.88-1-0.67-0.68-1.64-0.54-2.93 0.4-1.86 1.36-1.82 1.49 1.28 3.25 2.33 1.33 3.07 2.35 2.65 3.66-0.37 1.17-0.08 1.74 0.78 1.62 2.9-0.39 4.02 0.1 3.47 1.54-0.96 2.5 2.69 3.69 5.47 1.78 1.82-1.26 2.09-1.32 1.19-0.19-1.69 2.1-0.07 4.3 2.56 3.47 3.79-1.2 4.81 0.72 1.1 2.06-4.77 1.72-9.53 1.69-11.32-0.09-1.97-1.98-5.03-2-4.28-0.03 0.47 1.21-0.23 1.37-3.9 0.87-5.38-0.74-6.06 0.93-1.1 2.72 2.41 0.87 3.26 1.71 2.94 2.94-0.53 2.04 2.62 3.17 5.06 1.81 1.33-0.74 1.66-0.45 1.66 1.53 0 2.03 0.36 2.37 2.15 1.91 1.77-0.47 2.03-0.27 1.47 1.18-0.54 1.43-0.26 1.71 1.35 1.29 1.11-0.29 2.03-0.13 2.03 0.37 0 1.75 2.11 0.87 4.78-1.97 3.21-3.42 5.11-4.18 7.47-2.97 2.74 1.41 2.05 2.55-1.25 2.07-3.45-0.51-3.95 1.01-1.47 4.56 1.45 2.07 1.45 2.22-0.41 2.22-1.09 0-2.67 0.67-3.5 1.5-0.82 0.82-2.16 1.5-3 1.5-0.83 0-1.77 0.42-2.09 0.93-0.32 0.52-2.33 0.91-4.47 0.88s-4.47 0.31-5.19 0.75c-0.71 0.44-2.76 0.71-4.53 0.59-2.66-0.18-3.26 0.18-3.53 2.07-0.23 1.63-1.01 2.29-2.81 2.37-1.38 0.06-2.95 0.23-3.5 0.38-0.55 0.14-1.79 0.16-2.75 0.06s-1.75 0.22-1.75 0.69c0 1.32 5.53 4.28 8.03 4.28 2.19 0 2.23 0.05 0.47 2-1.77 1.95-1.75 2 0.81 2 1.96 0 2.48 0.37 2.03 1.53-0.48 1.26-0.06 1.43 2.28 0.87 1.59-0.37 3.1-0.66 3.38-0.65 3.12 0.06 3.84 0.4 3.37 1.62-1.04 2.72 1.55 2.65 3.03-0.09 1.42-2.61 1.5-2.64 1.54-0.53 0.02 1.23 0.4 2.28 0.81 2.34 6.11 0.89 7.11 0.6 8.34-2.37l1.25-3 0.88 2.37 0.87 2.41 1.94-2.5c1.92-2.5 1.91-2.5 1.94-0.25 0.03 3.03 1.81 2.86 2.59-0.25 0.35-1.38 1.07-2.5 1.59-2.5 0.53 0 0.63 0.48 0.25 1.09-0.47 0.77 0.3 0.9 2.57 0.41 2.4-0.53 3.15-0.41 2.84 0.53-0.61 1.84-6.88 4.97-9.97 4.97-1.46 0-2.86 0.56-3.12 1.25-0.3 0.76-2.25 1.2-5.1 1.15-2.54-0.04-4.62 0.27-4.62 0.69 0 1.92 3.47 4.01 6.22 3.72 1.63-0.17 3.04 0.08 3.12 0.59 0.27 1.67-5.59 2.6-19.84 3.16-16.06 0.62-22.5 1.33-22.5 2.41 0 0.41-1.13 0.54-2.5 0.28-1.42-0.28-2.5-0.02-2.5 0.59 0 1.4 3.27 3.16 5.9 3.16 1.14 0 2.1 0.45 2.1 1s-0.49 1-1.06 1c-0.58 0-2.04 0.93-3.25 2.09l-2.19 2.13 3.25-0.44c2.15-0.3 3.25-0.04 3.25 0.78 0 0.74 0.8 1.03 2 0.72 1.12-0.29 2-0.03 2 0.59 0 1.62 2.54 1.38 4-0.37 0.68-0.83 1.68-1.5 2.25-1.5s0.31 0.8-0.6 1.81c-0.91 1-1.65 2.13-1.65 2.5 0 1.06 3.81 0.8 4.5-0.31 0.99-1.61 2.31-1.16 3 1 0.8 2.53 1.94 2.51 5.56-0.07l2.91-2.06-0.63 3.06c-0.75 3.77 1.07 4.07 5.13 0.88 2.66-2.1 2.74-2.1 1.68-0.13-1.24 2.33-0.64 3.43 1.44 2.63 0.78-0.3 2.09 0.01 2.91 0.69 1.03 0.85 1.5 0.9 1.5 0.12 0-0.62 0.67-1.12 1.5-1.12 0.82 0 1.5 0.62 1.5 1.4 0 0.97 0.88 1.34 2.75 1.13 10.41-1.18-3.06 4.87-15.16 6.81-7.91 1.27-8.7 1.22-11.31-0.5-1.54-1.02-3.34-1.84-4.03-1.84-2.07-0.01-1.41 1.99 1 3.03 1.65 0.71 1.05 0.79-2.25 0.28-2.48-0.38-5.63-0.63-7-0.56-1.38 0.07-4.73-0.53-7.44-1.32-2.71-0.78-5.07-1.3-5.25-1.12-1.04 1.04 5.36 5.17 8.94 5.75l4.25 0.69-3.75 0.12c-2.61 0.09-3.75 0.58-3.75 1.63 0 0.82 0.79 1.57 1.75 1.65 0.96 0.09 2.2 0.25 2.75 0.38s1.64 0.28 2.44 0.34c1.06 0.09 0.92 0.49-0.5 1.53-2.48 1.81-1.3 3.11 1.46 1.63 1.73-0.92 2.1-0.83 2.1 0.53 0 1.28 0.71 1.54 3.25 1.19 1.79-0.25 4.15-0.79 5.25-1.19 1.97-0.72 1.94-0.72 0.03 0.84-1.95 1.59-1.53 1.96 1.72 1.63 0.99-0.1 1.75 0.51 1.75 1.4 0 2.14 0.81 1.97 3.19-0.68l2.03-2.25-1.63 2.72c-0.88 1.49-1.59 3.17-1.59 3.75 0 1.54 4.9 0.4 7.25-1.69 1.96-1.76 1.98-1.72 1.22 0.72-1.06 3.39-2.29 4.1-11.5 6.87-7.66 2.3-8.12 2.33-12.25 0.75-4.51-1.72-10.72-2.21-10.72-0.84 0 0.44 0.52 1.36 1.19 2.03 0.81 0.81-0.53 0.68-4.1-0.38-2.92-0.86-5.99-1.32-6.84-1-1.31 0.51-1.19 1 0.75 3.07l2.28 2.43-3.38-0.96c-4.35-1.25-9.63-1.25-10.4 0-0.8 1.28 5.89 4.02 9.84 4.03h3.16l-2.94 2.34c-2.9 2.32-2.87 5.36 0.03 4.25 0.97-0.37 1.41 0.23 1.41 1.94 0 1.77 0.52 2.47 1.9 2.47 1.07 0 2.63 0.68 3.47 1.53 1.28 1.27 1.87 1.3 3.57 0.25 1.12-0.7 2.06-1.62 2.06-2.03 0-0.42 0.79 0.03 1.78 1 1.91 1.85 2.46 4.25 0.97 4.25-0.49 0-0.57 0.48-0.19 1.09 0.48 0.77-0.26 0.91-2.44 0.44-1.99-0.44-3.12-0.32-3.12 0.37 0 0.62-1.95 1.1-4.5 1.1-4.69 0-5.57 0.86-3 3 1 0.83 3.12 1.05 6.25 0.65l4.75-0.59-3.72 1.97c-2.58 1.37-3.54 2.45-3.13 3.53 0.38 0.97 1.21 1.29 2.22 0.87 0.89-0.37 2.3-0.77 3.13-0.9 0.82-0.14 0.94-0.05 0.25 0.19-2.53 0.87-1.23 2.47 1.5 1.84 1.97-0.46 2.33-0.36 1.28 0.34-2.65 1.76-0.3 2.27 2.87 0.63 1.71-0.88 3.1-1.18 3.1-0.66s-0.56 1.16-1.25 1.41c-0.69 0.24-0.9 0.82-0.47 1.28s2.07 0.35 3.66-0.25c2.36-0.89 2.81-0.83 2.37 0.31-0.39 1.01-0.03 1.19 1.31 0.72 1.56-0.55 1.66-0.42 0.57 0.75-1.03 1.09-4.47 1.35-15.75 1.19-8.74-0.13-14.44 0.17-14.44 0.75 0 0.53 0.7 0.97 1.56 0.97 0.87 0 2.2 0.63 2.97 1.4 1.2 1.21 1.18 1.49-0.16 2-0.85 0.33-2.97 0.59-4.72 0.6-3.67 0.01-6.19 1.32-5.31 2.75 1.09 1.76 6.06 2.08 10.16 0.65 5.47-1.9 5.76-1.79 2.94 1.03-3.53 3.53-3.27 5.66 0.53 4.57 1.63-0.47 3.43-1.15 4-1.5 0.56-0.35 1.07 0.19 1.15 1.18 0.09 1 0.22 2.32 0.28 2.97 0.07 0.65 0.42 1.51 0.79 1.88 0.78 0.79 6.81-2.59 6.81-3.81 0-0.47 0.41-0.58 0.94-0.25 0.61 0.38 0.61 1.5 0 3.12-0.53 1.39-0.94 2.98-0.94 3.53 0 1.32 4.72-2.1 9.47-6.84 3.54-3.54 4.04-2.94 0.75 0.9-0.81 0.95-1.17 2.48-0.82 3.41 0.58 1.5 0.91 1.41 3.19-0.72l2.6-2.37-0.35 2.5c-0.32 2.29-1 2.59-8.34 3.81-5.16 0.85-8.54 0.98-9.53 0.37-2.51-1.54-7.97-2.46-7.97-1.34 0 0.56 0.79 1.22 1.75 1.47 0.96 0.24-0.5 0.24-3.25 0-4.02-0.35-4.76-0.2-3.75 0.81 1.91 1.93 1.48 2.65-1.25 2.13-3.23-0.62-7.77 0.53-7 1.78 0.33 0.53 1.62 0.97 2.87 0.97 4.28 0 3.68 1.37-1.53 3.47-8.87 3.56-6.93 6.21 2.19 3 4.62-1.63 6.42-1.35 3.03 0.46-1.15 0.62-2.06 1.83-2.06 2.69 0 1.21 0.6 1.42 2.65 0.91 2.36-0.59 2.54-0.5 1.38 0.9-2.7 3.25 0.16 3.26 4.62 0 2.09-1.52 2.17-1.5 1.6 0.72-0.54 2.09-0.43 2.19 1.09 0.94 1.51-1.23 1.61-1.18 1 0.5-0.6 1.66-0.36 1.6 1.81-0.37 2.55-2.32 4.12-2.13 3.16 0.37-0.76 1.99 1.63 1.73 5.44-0.59 1.81-1.11 3.25-1.49 3.25-0.88 0 0.68 1.05 0.86 2.75 0.47 1.86-0.42 2.26-0.33 1.25 0.28-0.83 0.5-3.98 1.41-7 2.03-6.51 1.35-8.54 2.44-7.53 4.07 0.69 1.11 2.03 0.99 8.03-0.63 1.53-0.41 1.24 0.22-1.25 2.63-1.79 1.72-3.25 3.34-3.25 3.62 0 0.99 5.56-0.24 8.75-1.94 3.5-1.86 4.04-1.29 1.72 1.78-2.03 2.69-1.84 3.87 0.53 3.25 1.3-0.34 2 0 2 0.91 0 1.87 0.91 1.77 3.25-0.34 1.84-1.67 1.93-1.66 1.59 0.25-0.53 3.05 5.01 2.13 7.97-1.32l2.31-2.68-0.65 3.25c-0.87 4.3 1.64 4.41 5.53 0.25 1.54-1.65 2.93-3 3.12-3 0.2 0 0.42 1.16 0.5 2.59 0.23 3.93 1.86 4.99 3.94 2.56 1.64-1.92 1.88-1.95 3.09-0.37 1.21 1.56 1.34 1.54 1.91-0.47 0.37-1.3 1.16-1.97 1.97-1.66 0.86 0.33 1.6-0.45 2.03-2.15 0.46-1.85 0.93-2.31 1.47-1.44 0.43 0.7 1.72 1.42 2.87 1.59 1.63 0.25 2.59-0.66 4.29-4.15 2.19-4.51 4.5-6.25 3.31-2.5-0.77 2.42-0.19 2.48 3.03 0.37 1.36-0.89 2.5-2.57 2.56-3.75 0.09-1.71 0.23-1.78 0.6-0.37 0.76 2.91 2.31 0.89 2.34-3.07 0.02-2.99 0.2-3.35 1.03-1.93 0.56 0.96 1.96 1.75 3.09 1.75 1.97 0 2.05 0.36 1.41 7.75-0.45 5.16-1.5 9.37-3.12 12.59-0.96 1.89-1.76 3.57-2.16 4.5h24.87c1.11-0.88 0.61-2.43-0.53-5.16-1.77-4.24-2.45-12.91-1.06-13.37 0.55-0.18 1.77 1 2.75 2.66 1.82 3.08 4.06 4.22 3.03 1.53-1.18-3.08 0.68-1.4 2.03 1.84 1.08 2.58 1.95 3.35 3.75 3.22 1.3-0.1 3.01 0.29 3.78 0.87 1.02 0.76 1.53 0.73 1.82-0.12 0.26-0.79 1.05-0.54 2.34 0.75 2.57 2.57 3.86 2.45 3.25-0.31-0.29-1.32-0.14-1.82 0.34-1.19 1.16 1.48 4.35 2.55 4.35 1.47 0-1.01 5.52-0.65 8.4 0.53 1.52 0.62 1.8 0.43 1.32-0.84-0.34-0.89-0.1-1.79 0.56-2.04 0.91-0.33 0.92-0.77-0.03-1.78-2.27-2.4-1.33-2.71 2.4-0.81 4.13 2.11 5.29 1.8 3.29-0.84-1.07-1.42-1.09-1.53-0.04-0.6 0.73 0.65 1.93 0.95 2.69 0.66s1.41-0.13 1.41 0.37c0 0.51 0.61 1.77 1.37 2.82 1.2 1.64 1.64 1.71 3.07 0.53 1.43-1.19 1.83-1.05 3.25 0.97l1.62 2.31 0.91-2.41c0.83-2.23 0.99-2.28 2.18-0.65 1.59 2.14 2.29 2.17 4.25 0.22 1.22-1.22 1.29-1.83 0.32-3-0.67-0.81-0.93-1.47-0.57-1.47 0.37 0 0.14-1.02-0.5-2.25-0.97-1.89-0.6-1.78 2.22 0.78 6.23 5.62 6.64 5.83 8.41 4.06 0.88-0.88 1.25-2.15 0.84-2.84-0.41-0.72 0.1-0.6 1.19 0.28 5.29 4.24 10.64 5.08 7.03 1.09-1.63-1.8-1.57-1.94 1.03-2.59l2.72-0.69-2.94-2.37c-3.84-3.14-1.78-3.15 3.72 0 2.4 1.36 4.94 2.49 5.63 2.5 2.02 0.01 1.43-1.58-1-2.75-2.03-0.98-1.87-1.1 1.78-1.16 2.23-0.04 4.93-0.72 6-1.53 1.85-1.4 1.82-1.47-1.03-1.5-4.28-0.05-19.52-2.82-22.69-4.13-3.89-1.6-4.62-4.04-0.78-2.59 3.37 1.27 5.07 0.22 2.59-1.59-1.44-1.06-0.97-1.18 2.85-0.88 4.87 0.39 5.91-0.84 2.28-2.69-1.95-0.99-1.62-1.11 2.62-0.9 5.73 0.28 7.34-1.6 2.41-2.82l-3.28-0.81 3.25-0.37c3.8-0.46 4.14-1.49 1-3.1-1.84-0.94-1.06-1.07 4.25-0.62 5.98 0.5 6.32 0.42 4.53-1-1.07-0.85-2.73-1.53-3.69-1.53s-2.03-0.5-2.4-1.1c-0.42-0.68 0.2-1.03 1.68-0.9 4.18 0.34 6.88 0.01 6.88-0.88 0-0.48-3.17-1.18-7.03-1.56s-6.81-1.06-6.53-1.5c0.27-0.45 3.15-1.41 6.4-2.13 6.13-1.36 10.01-3.39 8.78-4.62-0.62-0.63-6.19 0.28-13.62 2.25-2.29 0.6-2.23 0.42 0.9-2.28 5.16-4.44 2.25-4.9-5.18-0.81-7.47 4.1-11.74 4.43-20 1.59-9.38-3.23-24.59-10.95-25.72-13.06-1.4-2.62-0.61-2.55 1.94 0.18 1.12 1.21 2.06 1.82 2.06 1.38 0-0.45 0.67-0.25 1.5 0.44 1.24 1.02 1.5 0.93 1.5-0.57s0.51-1.32 3.12 1.13l3.13 2.94-0.6-3.22c-0.59-3.18-0.55-3.21 2.13-2.06 1.49 0.63 3.39 1.67 4.22 2.31 3.88 2.98 4.33 2.92 3.62-0.6-0.53-2.65-0.42-3.11 0.53-2.15 1.74 1.74 5.85 1.54 5.85-0.28 0-1.87 1.61-1.96 2.69-0.16 0.44 0.74 2.05 2.12 3.56 3.09 2.27 1.47 2.75 1.52 2.75 0.32 0-0.81-0.9-2.26-2-3.25-1.1-1-2-2.29-2-2.85 0-0.55 0.25-0.71 0.59-0.37s1.33-0.08 2.19-0.94c1.08-1.08 2.71-1.41 5.31-1.06 2.59 0.35 3.93 0.08 4.28-0.85 0.4-1.02 1.31-1.12 3.82-0.4 8.82 2.53 10.44-0.36 1.93-3.44-5.75-2.08-6.47-3.14-1.09-1.59 6.84 1.96 15.74 0.47 11.97-2-0.83-0.55-3.53-1.06-6-1.13-3.82-0.11-4.07-0.21-1.6-0.75 1.61-0.35 3.12-1.26 3.38-2.03 0.39-1.17-1.19-1.3-9.69-0.72-10.01 0.69-10.17 0.69-8.94-1.28 1.84-2.93 0.58-3.44-4.4-1.75-2.69 0.91-6.15 1.3-8.85 0.97-5.78-0.71-24.9-7.12-27.15-9.09-2.35-2.07-2.22-3.51 0.25-2.72 1.12 0.35 2 0.17 2-0.41 0-1.08 1.5-0.77 6.5 1.41 1.65 0.72 5.27 1.32 8.06 1.34s5.49 0.12 6 0.22c2.34 0.45 2.59-0.24 0.84-2.31-1.25-1.5-0.86-1.33 1.16 0.5 3.46 3.13 4.44 3.39 4.44 1.22 0-1.32 0.32-1.32 2.56 0.15 1.51 0.99 2.86 1.3 3.25 0.75 0.37-0.52 2.01-1.52 3.66-2.25 2.87-1.26 2.91-1.36 1.06-2.72-2.26-1.65-1.69-1.79 1.87-0.43 1.94 0.73 2.6 0.66 2.6-0.32 0-0.79 2.54-1.83 6.5-2.65 3.57-0.75 6.5-1.77 6.5-2.25 0-0.49 0.42-0.59 0.97-0.25 0.54 0.33 1.79 0.16 2.75-0.38 1.52-0.85 1.38-1.08-1.03-1.69-2.09-0.52-2.62-1.13-2.19-2.5 0.42-1.33-0.02-1.87-1.72-2.12-1.62-0.24-0.47-0.94 3.94-2.34 6.83-2.18 8.51-4.15 2.53-2.97-5.53 1.08-19.25 1.33-19.25 0.34 0-0.47 0.45-0.84 1-0.84s1-0.46 1-1c0-0.55-2.14-0.96-4.75-0.91-6.56 0.13-17.05-2.06-17.69-3.72-0.36-0.93 0.29-1.37 1.97-1.37 1.36 0 2.47-0.44 2.47-0.97 0-0.54 0.67-0.73 1.5-0.41 0.82 0.32 1.5 0.05 1.5-0.59 0-0.77 0.75-0.62 2.22 0.4 1.22 0.86 3.36 1.55 4.75 1.54l2.53-0.04-2.31-1.93-2.29-1.91 4.79-0.31 4.81-0.35-3.5-1.68-3.5-1.69 3.06-0.03c1.95-0.03 3.95-0.95 5.44-2.53 1.29-1.38 2.81-2.5 3.4-2.5 0.6 0 1.68-0.92 2.38-2.03 1.83-2.93-0.5-3.52-6.25-1.57-6.2 2.11-7.49 2.05-6.84-0.4 0.63-2.42 0.46-2.43-5.82-0.38-4.77 1.56-5.27 1.52-12.9-0.65-10.3-2.94-12.93-5.68-5-5.22 0.81 0.04 1.8-0.41 2.18-1.03 0.5-0.8 1.33-0.61 2.72 0.65 1.57 1.42 2.88 1.66 6.07 1.13 4.54-0.77 4.82-1.15 2.31-3.22-1.8-1.48-1.14-1.44 3.15 0.28 1.54 0.61 1.8 0.43 1.29-0.91-0.48-1.23-0.1-1.65 1.43-1.65 1.4 0 1.9-0.48 1.53-1.44-0.3-0.79-0.03-1.66 0.63-1.94 0.84-0.35 0.72-0.92-0.44-1.87-1.52-1.25-1.45-1.54 0.75-3.66 3.6-3.47 2.94-4.19-2.34-2.5-13.13 4.21-17.94 4.46-21.16 1.03-1.82-1.94-1.93-2.47-0.72-2.94 0.82-0.31 2.83-0.06 4.5 0.57 4.28 1.61 5.19 0 1.63-2.88-2.5-2.02-2.67-2.39-1-2.25 3.5 0.3 5.5-0.09 5.5-1.12 0-0.55-0.79-1.03-1.75-1.07-1.42-0.05-1.37-0.24 0.34-0.93 1.16-0.47 2.38-1.56 2.72-2.44 0.53-1.39 0.34-1.46-1.59-0.38-3.49 1.96-24.33 1.66-28.72-0.4-3.07-1.44-3.23-1.65-1.16-1.72 1.9-0.07 2.28-0.48 1.85-2.16-0.49-1.87-0.39-1.95 1.12-0.65 2.19 1.87 5.19 2.92 5.19 1.81 0-0.48 0.9-0.66 2-0.38 1.12 0.3 2 0.03 2-0.59 0-0.61 1.12-1.09 2.5-1.09 3.32 0 3.16-1-0.69-4.16l-3.22-2.62 5.35 0.84c5.51 0.87 7.51 0.51 6.46-1.19-1.02-1.66 1.67-3.87 4.69-3.87 3.41 0 3.88-1.65 0.66-2.35-1.28-0.27-0.74-0.45 1.25-0.37 2.27 0.08 3.41-0.27 3.25-1.06-0.14-0.67 0.22-1.22 0.84-1.22 0.76 0 0.72-0.51-0.15-1.57-0.83-0.99-2.24-1.39-3.88-1.06-1.42 0.29-2 0.3-1.31 0 2.31-1 1.28-2.6-1.25-1.97-2.03 0.51-2.34 0.31-1.81-1.06 0.47-1.23 0.26-1.45-0.72-0.84-0.74 0.45-2.49 0.91-3.91 1.03-1.42 0.11-3.69 0.52-5.06 0.9l-2.5 0.69 2.75-2.34c3.18-2.73 3.64-4.33 0.81-2.81-2.79 1.49-4.84 1.36-3.28-0.19 2.24-2.25 1.36-4.02-0.94-1.88-1.17 1.1-3.53 2.66-5.25 3.47-6.11 2.9-22.59-1.05-22.59-5.4 0-0.88-0.56-2.13-1.22-2.79-0.8-0.8-0.83-1.18-0.09-1.18 0.6 0 1.34 0.67 1.65 1.5 0.37 0.95 1.8 1.45 3.88 1.37 1.8-0.06 4.29 0.22 5.53 0.63 1.85 0.6 2.25 0.33 2.25-1.38v-2.06l3.4 2c2.45 1.44 3.62 1.71 4.13 0.87 0.39-0.63 0.1-1.58-0.66-2.09-1.18-0.8 4.65-0.69 8.63 0.16 0.55 0.11 2.02-0.13 3.28-0.53 2.11-0.68 2.15-0.89 0.69-2.5-1.47-1.63-1.39-1.79 0.97-2.38 2.88-0.72 3.46-2.6 0.81-2.66-1.1-0.02-0.64-0.53 1.25-1.4 1.65-0.76 4.32-2.47 5.94-3.81l2.9-2.44-3.65-0.69c-2.03-0.38-3.69-1.12-3.69-1.66 0-0.56-1.17-0.7-2.75-0.31-2.4 0.6-2.62 0.51-1.5-0.84 1.93-2.35-0.95-3.06-3.91-0.97-1.38 0.98-4.39 1.71-7.28 1.75-3.94 0.06-4.5-0.14-2.78-0.91 1.94-0.87 2.14-1.68 1.28-5.5-0.04-0.18-1.58 0.61-3.44 1.75-1.85 1.15-4.89 2.07-6.75 2.07-6.23-0.02-16.96-4.18-23.78-9.22-2.62-1.95-2.07-2.35 0.97-0.72 1.58 0.84 1.94 0.7 1.97-0.75 0.03-1.71 0.08-1.72 1.06-0.03 0.57 0.97 1.44 1.52 1.94 1.22 0.5-0.31 2.05 0.18 3.44 1.09 2.5 1.64 2.51 1.61 2.53-1.22 0.01-1.58 0.34-2.36 0.75-1.75 0.87 1.31 4.65 3.41 6.15 3.41 0.59 0 1.14-1.02 1.19-2.25 0.1-2.14 0.12-2.13 0.78 0.25 0.39 1.37 0.91 2.29 1.16 2.06s1.39 0.08 2.53 0.69c1.69 0.9 2.33 0.75 3.44-0.78 0.75-1.04 1.75-1.64 2.22-1.35s0.54-0.63 0.18-2.06c-0.62-2.49-0.54-2.56 2.1-1.56 3.25 1.23 4.26 0.62 2.5-1.5-1.05-1.27-0.95-1.5 0.53-1.5 1.68 0 1.66-0.11 0.03-1.91-0.95-1.05-1.29-2.15-0.78-2.47s1.72 0.3 2.69 1.38c1.52 1.68 2.5 1.83 6.37 1.06 0.21-0.04-0.1-0.67-0.72-1.41-1.3-1.57-0.53-2.65 1.91-2.65 0.95 0 2.79-0.89 4.09-1.97l2.38-1.97-3-0.19c-1.65-0.1-4.1-0.09-5.44 0.03-2.11 0.2-2.27 0.01-1.12-1.37 2.18-2.64 0.64-2.63-3.22 0-4.19 2.85-6.72 3.34-4.72 0.94 1.06-1.28 1-1.44-0.38-0.91-1.9 0.73-2.18-0.63-0.47-2.34 2.57-2.57-0.15-2.18-3.31 0.46-6.21 5.21-6.98 5.38-14 3.25-7.36-2.22-12.3-5.01-13.78-7.78-0.91-1.69-0.7-1.93 1.47-1.81 1.37 0.08 2.7 0.84 2.97 1.69 0.27 0.84 1.44 1.6 2.59 1.69 1.69 0.12 1.99-0.28 1.53-2-0.5-1.92-0.29-1.85 1.78 0.56 1.28 1.49 3.32 2.72 4.57 2.72 1.96 0 2.19-0.38 1.68-2.91-0.75-3.78 1.59-4.83 4.04-1.78 1.66 2.08 7.29 3.54 7.31 1.91 0-0.41-1.46-1.94-3.25-3.44-2.49-2.08-2.83-2.73-1.47-2.75 0.98-0.02 2.03 0.61 2.34 1.44 0.32 0.82 0.96 1.28 1.41 1 0.45-0.29 1.09-0.06 1.44 0.5 0.34 0.55 1.83 1.03 3.28 1.03 2.52 0 2.54-0.08 0.69-1.44-1.88-1.38-1.84-1.46 0.87-2.5 1.55-0.59 3.35-1.08 4-1.09 0.65-0.02 0.06-0.68-1.31-1.44-2.44-1.35-2.41-1.38 1.37-1.03 2.46 0.22 4.41-0.16 5.32-1.07 2.19-2.19 0.64-3.43-4.32-3.43-2.76 0-4.25-0.42-3.87-1.03 1.26-2.04-2.43-2.08-6.6-0.07-5.1 2.47-6.04 2.59-5.28 0.6 0.36-0.95-0.01-1.5-1-1.5s-1.36-0.56-1-1.5c0.68-1.76 0.33-1.82-2.97-0.57-2.14 0.82-2.37 0.69-1.93-1 0.52-2.01-1.16-2.71-2.25-0.93-0.35 0.55-2.47 1.97-4.72 3.12-3.63 1.85-4.57 1.94-8.13 0.88-3.32-1-3.74-1.38-2.34-2.16 0.93-0.52 1.72-1.63 1.72-2.47 0-1.18-1.03-1.46-4.53-1.25-3.41 0.21-4.98-0.21-6.44-1.69-2.19-2.22-4.32-10.144-2.94-10.996 0.85-0.527 1.33 1.604 0.97 4.346-0.09 0.7 0.79 2.62 1.97 4.28 1.71 2.41 2.44 2.77 3.56 1.84 0.77-0.64 1.44-2.33 1.5-3.78 0.09-2.08 0.24-2.21 0.63-0.62 0.75 3.1 3.35 5.5 5.97 5.5 2.04 0 2.23-0.28 1.34-1.94-1.31-2.44-1.32-3.36-0.03-2.56 0.55 0.34 1 0.14 1-0.44s0.45-1.06 1-1.06 1 0.63 1 1.4c0 1.8 5.84 6.79 7.06 6.03 0.5-0.31 0.94-1.43 0.94-2.5 0-1.06 0.45-1.93 1.03-1.93s0.79-0.57 0.44-1.25c-0.36-0.69 0.18-0.23 1.22 1.03 1.03 1.26 2.22 1.97 2.62 1.56 0.41-0.41 1.71-0.89 2.94-1.06 2.71-0.38 6.75-2.37 6.75-3.35 0-0.39-1.34-1.26-2.97-1.93-1.63-0.68-2.87-1.75-2.75-2.379 0.12-0.637-1.15-1.194-2.84-1.25-3.5-0.115-8.59-2.491-6.69-3.125 0.68-0.228 1.25-1.064 1.25-1.843 0-1.586-5-1.991-6.56-0.532-1.52 1.413-5.44 2.337-5.44 1.282 0-0.528 1.14-1.237 2.56-1.594 2.13-0.535 2.37-0.923 1.38-2.125-0.99-1.189-0.84-1.443 0.68-1.469 2.23-0.038 5.99-2.698 5.1-3.594-0.35-0.345-2.69-0.843-5.19-1.125-5-0.564-4.98-0.548-3.5-3.312 0.96-1.793 1.2-1.82 3.41-0.375 2.22 1.459 2.41 1.409 3.03-0.531 0.36-1.141 1.08-1.816 1.59-1.5 0.51 0.315 0.94 0.113 0.94-0.469 0-0.583 0.9-1.063 2-1.063s2-0.64 2-1.406c0-1.529-2.11-2.594-5.1-2.594-2.27 0-2.57-1.835-0.43-2.656 0.82-0.315 1.28-0.903 1.03-1.312-0.25-0.41 0.66-1.33 2.03-2.063 3.37-1.804 2.54-3.469-1.75-3.469h-3.53l2.53-3.312c1.97-2.586 2.24-3.556 1.28-4.5-0.95-0.941-1.92-0.428-4.5 2.375-3.06 3.323-3.37 3.451-4.44 1.75-0.63-1.009-1.59-1.813-2.12-1.813-1.19 0-4.35 5.596-5.03 8.938-0.51 2.47-9.71 10.356-11.1 9.5-0.39-0.244-0.59-2.913-0.47-5.938 0.12-3.024-0.17-5.5-0.65-5.5s-0.73-1.661-0.56-3.687c0.25-3.074 0.76-3.819 3.09-4.438 2.42-0.641 2.72-0.498 2.22 1.094-0.91 2.874 1.53 3.606 3.47 1.031 1.02-1.361 1.99-1.872 2.37-1.25 0.68 1.103 4.66 0.52 4.66-0.687 0-0.93-4.98-5.587-5.85-5.469-0.36 0.05-1.45-0.125-2.4-0.375-2.82-0.738-0.99-2.144 2-1.531 5.01 1.028 9.53 0.836 9.97-0.438 0.23-0.687-0.23-1.25-1.03-1.25-0.81 0-2.01-0.681-2.69-1.5s-1.64-1.239-2.13-0.937c-0.48 0.301-0.87 0.195-0.87-0.25s1.35-1.713 3-2.813c3.03-2.022 3.86-3.5 1.97-3.5-1.82 0-8.37 3.029-9.25 4.282-0.52 0.741-0.62 0.356-0.25-0.969 0.33-1.191 0.17-2.43-0.35-2.75-1.09-0.673-5.12 5.76-5.12 8.156 0 0.885-0.3 1.327-0.66 0.969s-1.28 0.108-2.03 1.062c-1.19 1.512-1.29 1.103-0.84-3.156 0.41-3.957 1.35-5.887 5-10.156 2.47-2.9 4.53-5.92 4.53-6.719 0-2.403-5.03-0.823-6.06 1.906-1.66 4.343-3.47 2.837-3.1-2.562 0.28-3.94-0.08-5.428-1.75-7.219l-2.09-2.219zm-6.78 35.094c0.45 0.027 1.54 0.895 2.78 2.281 2.05 2.303 3 4.381 3 6.657 0 1.826-0.19 3.343-0.41 3.343-0.54 0-1.82-3.098-2.28-5.468-0.2-1.072-1.03-2.666-1.84-3.563s-1.47-2.257-1.47-3c0-0.186 0.06-0.259 0.22-0.25zm-2.44 14.688c1.9 0.139 6.52 3.323 7.25 5.25 1.3 3.426 0.56 4.065-1.69 1.437-0.98-1.152-2.35-2.094-3.03-2.094-1.16 0-3.89-3.867-3.16-4.468 0.15-0.117 0.36-0.145 0.63-0.125zm27.31 8.156c0.24 0.001 0.53 0.044 0.85 0.125 1.65 0.431 1.26 1.025-2.6 3.969-2.5 1.907-5.42 3.546-6.47 3.625-1.04 0.078-1.87 0.473-1.87 0.906s-0.51 0.812-1.1 0.812c-0.58 0-0.92-1.012-0.75-2.25 0.28-1.947 0.85-2.22 4.1-1.937 2.88 0.251 3.75-0.037 3.75-1.25 0-0.867 0.67-1.563 1.5-1.563 0.82 0 1.5-0.632 1.5-1.406 0-0.675 0.37-1.035 1.09-1.031zm-11.59 14.312l2.34 1.157c1.29 0.627 3.43 0.863 4.75 0.531 1.37-0.342 2.41-0.171 2.41 0.406 0 0.561-0.43 1.031-0.94 1.031-0.5 0-1.56 0.233-2.34 0.532s-2.49-0.408-3.82-1.563l-2.4-2.094zm10.97 2.469c0.22 0.034 0.56 0.266 1.03 0.656 1.12 0.928 1.5 0.943 1.5 0.063 0-0.65 0.49-0.86 1.12-0.469 0.8 0.493 0.59 1.129-0.68 2.063-2.58 1.883-3.44 1.679-3.44-0.782 0-1.108 0.09-1.587 0.47-1.531zm15.06 3.656c0.86 0 1.31 0.45 0.97 1-0.8 1.294-2.5 1.294-2.5 0 0-0.55 0.67-1 1.53-1zm-23.53 16.004c0.55 0 1 2.25 1 5 0 5.07-0.15 5.5-1.35 4.31-1.06-1.07-0.75-9.31 0.35-9.31zm-7.63 13.34c0.36-0.06 0.63 0.16 0.63 0.59 0 0.59-0.45 1.07-1 1.07-1.28 0-1.28-0.71 0-1.5 0.14-0.09 0.25-0.14 0.37-0.16zm8.07 2.13c0.05-0.01 0.15 0.08 0.21 0.25 0.28 0.67 0.29 2.02 0.04 3-0.26 0.97-0.48 0.43-0.5-1.22-0.02-1.24 0.07-2.02 0.25-2.03zm-12.44 0.53c0.55 0 1 0.19 1 0.43 0 0.25-0.45 0.73-1 1.07s-1 0.14-1-0.44 0.45-1.06 1-1.06zm-5 2c0.55 0 1 0.19 1 0.43 0 0.25-0.45 0.73-1 1.07s-1 0.14-1-0.44 0.45-1.06 1-1.06zm-20.81 0.03c0.68 0.06 1.53 0.52 2.18 1.34 2.03 2.56 5.39 2.9 7.25 0.72 1.65-1.92 4-1.95 2.82-0.03-0.32 0.51 0.11 0.94 0.93 0.94 0.83 0 1.79-0.45 2.13-1 0.81-1.31 2.5-1.32 2.5 0 0 0.56-1.24 1.51-2.75 2.09s-5.32 1.28-8.44 1.56c-4.96 0.45-5.8 0.28-6.75-1.5-0.6-1.11-1.06-2.5-1.06-3.09 0-0.76 0.5-1.1 1.19-1.03zm91.75 52.97c0.58 0 1.06 0.45 1.06 1 0 1.28-0.71 1.28-1.5 0-0.34-0.55-0.15-1 0.44-1zm-83.6 12c0.61 0-0.57 0.9-2.62 2-3.63 1.94-5.72 2.49-5.72 1.5 0-0.62 6.87-3.5 8.34-3.5zm86.35 42.72c1.1-0.01 2.19 0.1 2.87 0.37 1.37 0.54 0.69 0.76-2.31 0.81-2.34 0.04-4.25-0.1-4.25-0.31 0-0.53 1.85-0.86 3.69-0.87zm22.37 5.4c0.35-0.01 0.76 0.04 1.13 0.19 0.79 0.32 0.54 0.54-0.63 0.59-1.05 0.05-1.64-0.2-1.31-0.53 0.16-0.16 0.46-0.23 0.81-0.25zm0.25 24.91c0.05-0.02 0.12 0 0.19 0 0.55 0 1.67 0.43 2.5 0.97 0.82 0.53 1.05 0.97 0.5 0.97s-1.68-0.44-2.5-0.97c-0.72-0.47-1-0.88-0.69-0.97zm-174.19 40.4c0.48-0.07 0.61 0.14 0.35 0.57-0.34 0.54-1.02 1-1.53 1-1.44 0-1.14-0.75 0.59-1.41 0.22-0.09 0.44-0.13 0.59-0.16zm16.16 8.6l2.28 2.44 2.25 2.43 1.72-2.62c1.56-2.39 1.78-2.44 2.69-0.81 0.74 1.33 1.2 1.43 1.78 0.5 0.55-0.9 0.95-0.65 1.44 0.87 0.68 2.15 2.56 3.01 2.56 1.16 0-0.55 1.24-1.01 2.75-1h2.75l-3 1.59c-1.94 1.02-4.52 1.39-7.25 1.09-2.33-0.25-3.99-0.04-3.69 0.44 0.79 1.28-0.7 1.04-3.78-0.56-1.57-0.82-2.81-1-3-0.44-0.18 0.53-1.14 0.66-2.13 0.28-1.65-0.63-1.61-0.84 0.44-3.03l2.19-2.34zm23.25 1.09c0.21 0 0.41 0 0.59 0.06 0.75 0.25 0.29 0.71-1.06 1.07-1.66 0.43-2.05 0.3-1.31-0.44 0.43-0.44 1.15-0.68 1.78-0.69zm-10.16 41.22c0.36-0.06 0.63 0.16 0.63 0.59 0 0.59-0.45 1.07-1 1.07-1.28 0-1.28-0.71 0-1.5 0.14-0.09 0.25-0.14 0.37-0.16z"/>
    

   
    <path id="path3444" fill='#2d6a4f' d="m840.19 389.75c0.22-3.87 0.09-9.96-0.3-13.54-0.66-6.14-0.82-6.48-2.86-5.76-1.19 0.41-3.41 0.72-4.92 0.68s-2.75 0.22-2.75 0.59c0 0.36-1.33 0.57-2.96 0.46-2.15-0.15-3.14 0.32-3.57 1.69-0.7 2.2-3.47 2.59-3.47 0.49 0-1.47-1.62-1.59-3.74-0.26-0.83 0.52-1.05 0.29-0.67-0.71 0.43-1.1-0.02-1.37-1.76-1.04-1.28 0.24-1.77 0.17-1.08-0.15 1.72-0.82 1.59-2.5-0.14-1.83-0.78 0.29-2.12-0.49-3-1.76l-1.61-2.29v2.23c0 1.22-0.45 2.22-1 2.22s-1-0.39-1-0.86c0-0.48-1.12-0.65-2.5-0.39-1.46 0.28-2.5 0.02-2.5-0.63 0-0.62 0.85-1.12 1.88-1.12s2.41-0.65 3.07-1.44c0.65-0.79 2.5-1.72 4.11-2.07 4.69-1.03 4.22-2.12-0.93-2.16-2.62-0.01-5.99-0.33-7.47-0.7-1.51-0.38-3.66-0.17-4.88 0.49-1.64 0.87-2.28 0.88-2.57 0.02-0.21-0.64-0.78-0.9-1.28-0.6-1.31 0.82-8-0.62-7.4-1.58 0.28-0.46 1.96-0.59 3.74-0.31 2.85 0.47 3.36 0.19 4.32-2.36s0.86-2.91-0.83-3.03c-1.48-0.12-1.66 0.15-0.81 1.18 0.83 1 0.68 1.49-0.65 2-0.97 0.37-1.92 0.2-2.11-0.38-0.2-0.59-0.89-1.06-1.53-1.06-0.65 0-1.63-1.01-2.17-2.25-0.62-1.41-1.92-2.29-3.49-2.36-5.34-0.23-5.52-0.34-3.16-1.99 2-1.4 2.09-1.74 0.73-2.75-0.85-0.63-1.83-2.61-2.18-4.4-0.79-4.04 1.19-4.4 4.54-0.83 3.31 3.53 7.39 5.01 9.98 3.63 2.17-1.16 2.84-3.05 1.09-3.05-0.55 0-0.89-0.56-0.75-1.25s-0.31-1.14-1-1-1.25-0.16-1.25-0.66-0.92-0.66-2.04-0.37-1.93 0.14-1.79-0.34c0.14-0.49-0.31-1.9-1-3.15-1.64-2.95-0.89-4.01 3.44-4.82 2.28-0.43 3.2-1.01 2.57-1.63-0.62-0.62-1.69-0.58-3.01 0.13-2.54 1.36-4.17 1.39-4.17 0.09 0-0.55 0.87-1 1.94-1 3.34 0 3.35-1.98 0.01-3.38l-3.19-1.34 2.87-0.73 2.87-0.72-2.75-2.37c-1.51-1.3-2.75-2.6-2.75-2.89 0-0.57 5.6 0.25 8 1.18 0.83 0.32 1.8 0.62 2.17 0.66 0.36 0.05 1 0.43 1.41 0.84 1.56 1.55 10.42 0.39 10.42-1.37 0-0.48-1.01-0.89-2.25-0.9s-3.29-1.11-4.55-2.45c-1.43-1.51-2.92-2.19-3.93-1.81-1.27 0.49-1.46 0.21-0.88-1.3 0.56-1.49 0.46-1.65-0.47-0.74-1.42 1.41-3.26-0.03-4.32-3.38-0.45-1.41-1.26-1.94-2.5-1.62-1.36 0.36-1.96-0.19-2.33-2.1-0.49-2.56 0.54-3.5 1.73-1.58 0.95 1.53 4.49 1.19 5.14-0.5 0.32-0.83 1.2-1.5 1.97-1.5 0.76 0 1.39-0.45 1.39-1s-0.67-1-1.5-1c-0.82 0-1.5-0.45-1.5-1s-0.73-1-1.62-1c-1.24 0-1.36-0.31-0.51-1.34 1.42-1.72 0.23-2.99-1.47-1.58-0.98 0.82-1.25 0.59-1.13-0.94 0.08-1.1 0.62-1.78 1.19-1.5s0.25-0.14-0.71-0.93-1.75-1.72-1.75-2.07c0-1.36 2.32-0.52 6.5 2.36 2.4 1.65 4.62 3 4.93 3 1.52 0 0.26-2.94-2.46-5.72-2.1-2.15-2.63-3.26-1.75-3.65 0.71-0.3 0.04-0.3-1.47 0.02-2.09 0.43-2.75 0.18-2.75-1.04 0-0.98 0.88-1.64 2.25-1.69 1.24-0.04 1.69-0.31 1-0.58-0.69-0.28-1.25-1.22-1.25-2.09s0.3-1.28 0.67-0.91c0.37 0.36 1.72-0.02 3-0.86 1.37-0.9 4.01-1.41 6.47-1.25 2.67 0.17 4.31-0.19 4.6-1.01 0.25-0.71 0.07-1.22-0.39-1.13-0.47 0.08-1.52 0.09-2.35 0.01-1.33-0.12-1.33-0.24 0-1.1 1.29-0.83 1.25-0.97-0.23-0.99-1.81-0.01-3.44-4.12-2.34-5.9 0.37-0.59 2.69 0.29 5.67 2.14 4.19 2.61 5.2 2.89 5.96 1.69 1.32-2.09 1.15-3.55-0.26-2.14-0.66 0.66-1.84 1.2-2.62 1.2-1.14 0-1.18-0.29-0.2-1.47s0.88-1.82-0.51-3.21c-1.12-1.11-1.33-1.87-0.6-2.11 0.62-0.21 1.13-0.82 1.13-1.36 0-0.55-0.94-0.69-2.12-0.31-1.43 0.45-1.91 0.31-1.44-0.43 0.38-0.63 0.01-1.11-0.88-1.11-0.86 0-1.56-0.42-1.56-0.94 0-1.99 2.01-2.03 5.16-0.11 2.94 1.79 3.51 1.84 5.51 0.53 1.22-0.8 2.88-1.21 3.68-0.9 0.8 0.3 1.75 0.07 2.11-0.51 0.36-0.59 0.18-1.07-0.4-1.07s-1.07-0.79-1.09-1.75c-0.03-1.58-0.17-1.57-1.5 0.19-1.75 2.31-1.93 1.31-0.32-1.76 1.14-2.17 1.13-2.17-1.02-0.26-2.17 1.92-2.17 1.92-3.37-1.24-0.72-1.91-1.8-3.07-2.73-2.93-0.94 0.16-1.66-0.66-1.87-2.13-0.29-2.09-0.03-2.31 2.18-1.75 3.54 0.89 6.05-0.19 4.58-1.98-0.63-0.75-0.88-2.06-0.55-2.9 0.47-1.24 0.22-1.34-1.33-0.51-3.12 1.67-4.13 1.24-3.45-1.48 0.4-1.6 0.21-2.5-0.54-2.5-0.64 0-0.88-0.47-0.52-1.04 0.35-0.58 0.05-1.82-0.69-2.75-0.73-0.94 0.7 0.1 3.17 2.32s5.95 4.63 7.73 5.37c1.78 0.73 2.99 1.73 2.69 2.21-0.3 0.49-0.18 0.92 0.26 0.96 0.45 0.03 2.27 0.25 4.06 0.49 1.95 0.25 3.25-0.02 3.25-0.68 0-0.6 0.58-0.87 1.3-0.6 0.77 0.3 1.04 0.72 1.13-0.5 0.12-1.54 0.29-0.2-0.58-0.69-1.74-0.97-4.85 0.28-4.85-1.09 0-0.55-0.8-1-1.78-1-0.97 0-2.71-0.66-3.86-1.47-1.15-0.8-2.38-1.18-2.73-0.83-0.34 0.35-0.63-0.12-0.63-1.03v-2.42c0-1.68 6.78-0.72 10.75 1.53l4.25 0.75v-1.03c0-1.85-0.62-2.85-2-3.21-2.05-0.54-2.81-2.29-0.99-2.29 0.63 0 0.58-0.69-0.14-1.84-1.2-1.93-5.99-1.86-5.58 0.09 0.12 0.56-1.03 1.37-2.54 1.8-1.73 0.49-2.75 0.39-2.75-0.26s-0.52-0.6-1.41 0.14c-0.96 0.79-1.62 0.83-2.06 0.12-0.35-0.57 0.4-1.46 1.67-1.98 8.96-3.63 10.79-4.59 11.28-5.89 0.44-1.14 0.26-1.21-0.8-0.33-0.75 0.62-1.66 0.84-2.01 0.48-0.36-0.36-2.99-0.57-5.85-0.46-5.06 0.17-6.31-0.5-2.11-1.15 3.3-0.5 5.33-2.72 4.86-5.3-0.37-2.07-0.2-2.21 1.44-1.18 1.02 0.64 1.71 1.41 1.52 1.71-0.18 0.3 1.23 0.66 3.13 0.8 1.91 0.14 3.24-0.11 2.95-0.57-0.28-0.45 0.1-2 0.85-3.44 1.15-2.22 1.14-2.53-0.05-2.07-0.94 0.36-1.41-0.16-1.41-1.56 0-1.16-0.62-2.11-1.38-2.11s-1.6-0.83-1.87-1.84c-0.45-1.74-0.25-1.72 3.3 0.22 2.08 1.14 3.64 2.31 3.47 2.6-0.18 0.28 1.24 0.63 3.16 0.77 3.16 0.24 3.33 0.12 1.9-1.32-0.87-0.86-1.58-1.88-1.58-2.26 0-0.37-1.35-1.28-3-2.01-1.68-0.75-2.72-1.8-2.35-2.4 0.36-0.59 0.03-1.56-0.75-2.16-0.77-0.61-1.91-2.54-2.54-4.29-1.07-3.01-1.03-3.12 0.76-2 1.05 0.65 1.73 1.64 1.52 2.19s0.91 1.09 2.49 1.21c1.92 0.14 2.87-0.27 2.87-1.22 0-0.94 0.59-1.2 1.72-0.77 1.39 0.53 1.32 0.23-0.36-1.57-2.51-2.69-2.58-6.71-0.12-6.52 0.94 0.08 1.97-0.72 2.3-1.76 0.33-1.05 0.99-1.66 1.46-1.37 0.48 0.29 1.13 0.11 1.45-0.41s-0.33-1.23-1.43-1.59c-1.11-0.35-2.02-1.37-2.02-2.27 0-1.27 0.27-1.36 1.2-0.43 1.63 1.63 2.8 1.51 2.8-0.3 0-0.83 0.49-1.5 1.09-1.5s2.28-0.93 3.73-2.07 2.79-1.62 2.97-1.07c0.47 1.4-3.64 5.35-4.81 4.62-0.53-0.32-0.69 0.11-0.36 0.97 0.33 0.85 0.1 1.55-0.51 1.55s-1.11 0.91-1.11 2.02c0 2.01 0.03 2.01 4.25-0.12 2.34-1.17 4.99-2.79 5.9-3.58 1.19-1.04 1.85-1.13 2.35-0.32 0.41 0.67-0.15 1.36-1.36 1.67-1.14 0.3-2.34 1.4-2.68 2.45-0.33 1.05-0.97 1.68-1.43 1.4-0.94-0.58-2.15 1.89-2.6 5.33-0.17 1.29-1.13 2.94-2.12 3.66-2.67 1.96-1.16 2.64 2.1 0.95 1.55-0.8 3.41-1.46 4.13-1.46s2.69-1.17 4.38-2.59c2.91-2.44 3.08-2.47 3.08-0.57 0 1.14-0.87 2.3-1.98 2.65-1.09 0.35-1.87 1.15-1.75 1.77 0.13 0.63-0.44 1.17-1.25 1.19-1.52 0.05-2.84 3.55-1.34 3.54 0.45 0 2.13-0.68 3.72-1.52 1.59-0.83 3.13-1.27 3.42-0.99 0.28 0.29-0.12 0.53-0.9 0.53-1.03 0.02-1.09 0.23-0.22 0.78 1.91 1.21-0.17 3.46-3.2 3.46-2.53 0-2.68 0.23-2.17 3.37 0.48 2.99 0.29 3.38-1.69 3.38-1.23 0-2.72-0.48-3.3-1.07-0.76-0.75-1.24-0.43-1.64 1.12-0.54 2.06-0.33 2.15 3.61 1.53 2.31-0.36 5.86-1.47 7.9-2.47 3.2-1.57 3.58-1.6 2.76-0.21-1.56 2.66-4.74 6.1-5.64 6.1-1.69 0-6.49 5.24-5.61 6.12 1.39 1.39 9.5-1.82 13.22-5.22 2.36-2.15 3.64-2.72 4.4-1.97 0.75 0.76 0.69 1.07-0.2 1.07-0.69 0-0.96 0.47-0.61 1.05 0.36 0.58-0.48 2.1-1.86 3.38-1.92 1.78-2.24 2.6-1.34 3.52 0.64 0.66 0.72 1.07 0.17 0.92-2.24-0.6-5.5 1.35-5.5 3.29 0 1.19-0.83 2.24-2 2.55-1.1 0.29-2 0.91-2 1.37 0 0.47-0.75 0.57-1.66 0.22-1.15-0.44-1.43-0.26-0.92 0.57 1.32 2.13 5.29 0.04 12.1-6.37 1.16-1.1 2.96-2.68 3.99-3.5 1.69-1.36 1.8-1.34 1.21 0.25-0.36 0.96-0.22 1.75 0.3 1.75 0.53 0 0.2 0.88-0.72 1.97-2.48 2.89-2.82 7.02-0.58 7.06 1.59 0.03 1.57 0.15-0.22 1.19-1.1 0.64-2.1 0.96-2.23 0.72s-0.94 0.57-1.81 1.81c-0.9 1.29-2.62 2.25-4.02 2.25-3.15 0-3.12 1.37 0.06 2.82 1.67 0.76 3.32 0.82 5 0.18 1.52-0.58 2.5-0.59 2.5-0.02 0 0.51 1.11-0.18 2.46-1.53s3.09-2.45 3.88-2.45 1.66-0.9 1.95-2c0.67-2.55 1.89-2.55 3.48 0 1.07 1.71 1 2-0.51 2.01-1.47 0.02-1.52 0.17-0.29 0.95 1.26 0.79 1.21 1.03-0.3 1.61-0.98 0.38-1.55 1.29-1.27 2.03s-0.14 2-0.95 2.81c-0.97 0.96-1.11 1.68-0.41 2.11 1.34 0.83-0.69 3.48-2.66 3.48-0.76 0-1.38 0.48-1.38 1.06 0 0.7 1.64 0.82 4.75 0.37 2.61-0.38 4.4-0.32 3.97 0.14-0.76 0.8-1.65 1.05-6.72 1.88-1.37 0.23-2.72 0.49-3 0.59-0.27 0.1-1.62 0.16-3 0.13-1.93-0.03-2.06 0.08-0.57 0.5 3.2 0.9 4.48 2.69 2.96 4.11-0.72 0.67-2.05 1.22-2.97 1.22-1.28 0-1.41 0.31-0.55 1.34 0.61 0.74 0.83 1.63 0.48 1.98s0.1 0.91 1 1.26 1.39 1.03 1.09 1.52c-1.56 2.52 12.51-1.35 14.56-4 0.87-1.13 6.16-4.28 6.54-3.9 0.2 0.2-0.2 1.48-0.89 2.83-0.82 1.61-1.94 2.35-3.2 2.14-1.89-0.32-1.89-0.28 0.05 1.22 1.68 1.29 1.74 1.55 0.36 1.58-1.77 0.03-3.22 2.63-2.3 4.12 0.31 0.5-0.36 0.91-1.48 0.91-1.35 0-2.26 0.86-2.68 2.53-0.35 1.4-1.91 3.2-3.48 4.01-1.85 0.96-2.65 2-2.28 2.97 0.32 0.82 0.77 1.49 1.01 1.49 1.69 0 15.22-7.17 16.76-8.88 1.95-2.18 5.59-2.91 5.59-1.12 0 0.55-1.01 1.01-2.25 1.01-1.64 0.02-1.88 0.25-0.89 0.88 1.5 0.95 0.69 5.11-0.98 5.11-0.55 0-0.72 0.45-0.38 1s0.12 1-0.5 1c-0.61 0-0.86 0.42-0.54 0.93 0.31 0.51-0.45 1.07-1.69 1.25-1.25 0.17-2.27 0.99-2.27 1.82 0 0.89-1.11 1.63-2.75 1.82-1.51 0.17-2.75 0.9-2.75 1.62s-1.01 2.02-2.25 2.88c-1.95 1.37-2.01 1.58-0.44 1.63 1 0.03 1.56 0.46 1.25 0.96-0.87 1.4 3.64 0 6.6-2.06 1.46-1.02 2.95-1.85 3.31-1.85 0.37 0 2.17-1.15 4.01-2.55 3.29-2.51 5.09-2.1 3.94 0.9-0.32 0.84-1.15 1.31-1.83 1.04-0.69-0.26-1.26 0.22-1.26 1.07 0 0.84 0.72 1.57 1.59 1.62 0.94 0.04 1.1 0.27 0.39 0.56-0.66 0.27-0.93 1.19-0.6 2.04 0.5 1.31 0.25 1.37-1.56 0.4-2.17-1.16-3.16 0.18-1.07 1.47 1.58 0.98-2.64 4.56-4.53 3.83-0.85-0.33-1.55-0.08-1.55 0.54 0 0.63 0.65 1.39 1.44 1.69 0.79 0.31 1.19 1.19 0.89 1.97-0.29 0.77-0.94 1.16-1.43 0.85-0.5-0.3-0.9 0.15-0.9 1.01 0 2.81 2.49 1.64 7.54-3.52 5.31-5.44 10.01-8.47 10.89-7.03 0.3 0.48-0.12 1.44-0.94 2.12-1.95 1.61-1.9 5.87 0.08 8.06 1.32 1.47 1.36 2.06 0.25 3.84-0.72 1.16-1.88 1.9-2.57 1.63-0.69-0.26-1.25-0.06-1.25 0.46 0 0.51-0.67 0.68-1.5 0.36-1.82-0.7-1.96 0.75-0.25 2.56 1.03 1.09 0.88 1.13-0.87 0.24-2.43-1.25-3.38-0.65-3.38 2.11 0 1.61-0.47 1.84-2.75 1.31-1.83-0.43-2.29-0.33-1.37 0.28 1.75 1.16 0.56 3.24-1.42 2.48-1.03-0.39-1.3-0.09-0.89 0.97 0.52 1.36 0.97 1.36 4.26 0.02 2.02-0.83 5.55-3.33 7.84-5.55l4.18-4.05-0.58 4.39c-0.31 2.41-0.96 4.53-1.44 4.72-1.6 0.62-3.88 6.01-2.82 6.66 0.54 0.34 0.99 0.99 0.99 1.44 0 1.23-5.35 2.05-6.45 0.98-1.36-1.32-2.55-1.13-2.55 0.41 0 0.73 1.62 1.83 3.6 2.44 4.02 1.23 8.07 0.23 10.15-2.51 1.13-1.49 1.25-1.45 1.25 0.36 0 1.1-0.92 2.99-2.04 4.19s-1.68 2.2-1.25 2.21c0.44 0.01-0.66 0.74-2.44 1.62s-2.99 2-2.69 2.48c0.85 1.38-2.44 2.24-3.9 1.03-0.96-0.8-1.74-0.56-3.03 0.95-0.96 1.12-2.73 1.95-3.94 1.85-3.5-0.28-4.38 0.12-2.21 1 1.21 0.49 3.27 0.29 5.19-0.5 2.7-1.1 3.38-1.07 4.39 0.15 0.66 0.79 1.93 1.23 2.81 0.96 0.89-0.27 2.85-0.7 4.37-0.96s3.72-0.78 4.88-1.15c1.98-0.62 1.94-0.42-0.58 2.88-1.58 2.08-3.28 3.33-4.09 3.02-1.85-0.71-4.97 1.73-4.97 3.9 0 0.96-0.3 1.64-0.66 1.5-0.37-0.14-1.58 0.8-2.7 2.09s-2.48 2.07-3.02 1.73c-1.68-1.04-2.51 1.67-0.88 2.86 1.21 0.89 0.15 1.12-4.84 1.05-5.5-0.08-6.4 0.15-6.4 1.68 0 1.17-0.51 1.58-1.5 1.2-0.82-0.32-2.29-0.24-3.25 0.18s-2.76 0.66-4 0.54c-3.64-0.36-2.58 1.63 1.5 2.8l3.75 1.08-4.75-0.46c-2.75-0.27-4.75-0.05-4.75 0.52 0 0.54 1.01 1.01 2.25 1.05 2.14 0.07 2.15 0.11 0.25 0.89-1.47 0.6-2.67 0.19-4.55-1.57-2.59-2.42-4.58-3.22-3.45-1.39 0.34 0.55 0.14 1-0.44 1-2.44 0-0.81 1.8 2.19 2.42 2.85 0.59 3.03 0.8 1.44 1.71-1 0.57-2.57 0.7-3.5 0.29-0.93-0.4-1.99-0.68-2.37-0.6-0.37 0.07-1.27-1.21-1.99-2.85-1.64-3.71-2.6-3.78-3.01-0.22-0.21 1.84-0.81 2.63-1.82 2.4-5.55-1.3-6-1.06-5.98 3.24 0.02 4.01 1.42 15.37 2.56 20.86 0.55 2.62 0.4 2.75-3.28 2.75h-3.86l0.39-7.02zm-15.83-20.98c0.97-0.1 1.07-0.33 0.31-0.64-0.66-0.27-0.92-1.21-0.58-2.1 0.49-1.27 0.21-1.44-1.3-0.84-3.21 1.28-4.87 1.37-6.18 0.33-0.84-0.67-1.25-0.65-1.25 0.05 0 0.58-0.79 1.24-1.75 1.47-1.51 0.37-1.45 0.55 0.44 1.33 1.92 0.79 5.29 0.92 10.31 0.4zm-25-16.26c0-0.49-0.67-0.21-1.5 0.62-0.82 0.82-1.48 2.09-1.47 2.82 0.04 1.46 2.97-1.94 2.97-3.44zm14-4.8c0-0.52-0.5-0.94-1.11-0.94-0.62 0-0.83-0.77-0.49-1.75 0.56-1.62 0.5-1.62-0.79 0.04-1.14 1.47-1.63 1.56-2.75 0.5-1.58-1.5-8.86-2.09-8.86-0.72 0 0.51-0.67 0.93-1.5 0.93-2.08 0-1.88 1.77 0.25 2.21 3.91 0.8 15.25 0.6 15.25-0.27zm10 0.06c0-1.29-1.7-1.29-2.5 0-0.34 0.55 0.08 1 0.94 1s1.56-0.45 1.56-1zm14.49-1.99c0.35-0.57-0.05-0.73-0.94-0.39-1.73 0.66-2.05 1.38-0.61 1.38 0.52 0 1.22-0.45 1.55-0.99zm42.51-2.01c0-0.55-0.67-1-1.5-1-0.82 0-1.5 0.45-1.5 1s0.68 1 1.5 1c0.83 0 1.5-0.45 1.5-1zm-82-1.38c0-0.22-0.9-0.62-2-0.91s-1.75-0.12-1.44 0.38c0.54 0.87 3.44 1.31 3.44 0.53zm82.5-1.62c-0.79-1.28-1.5-1.28-1.5 0 0 0.55 0.48 1 1.06 1s0.78-0.45 0.44-1zm-78-4c0.35-0.56-0.4-0.99-1.69-0.99-1.86 0.02-2.02 0.21-0.81 0.99 1.86 1.2 1.76 1.2 2.5 0zm4.5-1.06c0-0.58-0.45-0.78-1-0.44-1.28 0.79-1.28 1.5 0 1.5 0.55 0 1-0.48 1-1.06zm-16.24-1.1c0.84-0.84 1.52-0.86 2.48-0.06 0.97 0.8 2.2 0.66 4.69-0.54 1.86-0.9 2.84-1.82 2.19-2.03-0.65-0.22-1.88 0.18-2.73 0.88-1.24 1.03-1.69 1.03-2.32 0.02-0.62-1-1.7-1.02-5.1-0.1-3.18 0.85-3.94 1.4-2.89 2.06 1.86 1.18 2.3 1.15 3.68-0.23zm102.58-3.78c0.96-0.96-0.98-1.01-6.59-0.17-0.41 0.06-0.75 0.59-0.75 1.17 0 1.3 5.83 0.51 7.34-1zm-97.85-4.05c0.35-0.57-0.05-0.73-0.94-0.39-1.73 0.66-2.05 1.38-0.61 1.38 0.52 0 1.22-0.45 1.55-0.99zm5.01-14.01c-0.79-1.28-1.5-1.28-1.5 0 0 0.55 0.48 1 1.06 1s0.78-0.45 0.44-1zm1.38-4.9c1.79-1.14 0.39-3.42-1.62-2.65-0.85 0.33-2.64-0.13-3.99-1.01-1.54-1.01-3.4-1.37-4.98-0.98-3.05 0.77-2.46 1.49 3.03 3.67 5.03 2 5.78 2.09 7.56 0.97zm100.12-5.17c0-1.74-3.1-4.38-3.84-3.27-0.36 0.54-1.45 1.28-2.41 1.63-3.13 1.16-1.84 2.71 2.25 2.71 2.2 0 4-0.48 4-1.07zm-94.81-3.61c-0.72-0.29-1.59-0.26-1.92 0.07-0.33 0.34 0.26 0.57 1.31 0.53 1.17-0.05 1.41-0.28 0.61-0.6zm4.81-12.32c-1.24-0.81-1.16-0.98 0.5-1 1.62-0.03 1.72-0.21 0.53-0.96-0.91-0.58-1.91-0.55-2.66 0.06-0.74 0.62-1.41 0.64-1.77 0.05-0.32-0.52 0.09-1.2 0.91-1.51 0.82-0.32 1.48-1.15 1.48-1.86-0.01-0.85-0.26-0.92-0.75-0.21-1.11 1.62-4.09 2.47-4.78 1.37-0.33-0.54-1.02-0.71-1.53-0.4-0.51 0.32-0.93 0.11-0.93-0.47s-1.01-0.94-2.25-0.81c-1.61 0.17-2.21-0.26-2.11-1.51 0.08-1.02-0.55-1.74-1.5-1.74-7.39 0.07-2.35 6.66 6.54 8.57 7.53 1.62 10.4 1.76 8.32 0.42zm58-12c0-0.55-0.45-1-1-1s-1 0.45-1 1 0.45 1 1 1 1-0.45 1-1zm-62-1c1.21-0.78 1.07-0.97-0.75-0.99-1.24 0-2.25 0.44-2.25 0.99 0 1.25 1.06 1.25 3 0zm11.56-13.09c1.03-1.67-1.29-3.58-2.67-2.2-1.16 1.16-0.43 3.29 1.11 3.29 0.49 0 1.19-0.49 1.56-1.09zm4.94-1.91c-0.79-1.28-1.5-1.28-1.5 0 0 0.55 0.48 1 1.06 1s0.78-0.45 0.44-1zm40.5-6c0-0.55-0.48-1-1.06-1s-0.78 0.45-0.44 1c0.79 1.28 1.5 1.28 1.5 0zm-39.5-4c0.34-0.55 0.17-1-0.38-1s-1.28 0.45-1.62 1-0.17 1 0.38 1 1.28-0.45 1.62-1zm-5.75-1.25c-0.47-1.42-2.08-1.26-2.58 0.25-0.19 0.55 0.41 1 1.33 1s1.48-0.56 1.25-1.25zm-3.75-1.81c0-1.59-2.23-2.18-3.1-0.82-1.36 2.15-1.06 2.74 1.1 2.17 1.1-0.29 2-0.9 2-1.35zm45.05-6.47c3.72-1.92 3.71-2.24-0.04-1.69-1.64 0.25-2.76 0.81-2.48 1.26 0.27 0.45-0.52 1.01-1.76 1.25-1.59 0.31-1.73 0.48-0.47 0.57 0.99 0.08 3.13-0.55 4.75-1.39zm-12.05-11.03c0-0.24-0.7-0.44-1.56-0.44s-1.27 0.46-0.93 1.02c0.57 0.92 2.49 0.48 2.49-0.58zm-13-14.77c0-0.93-0.96-1.18-3.25-0.82-3.15 0.49-3.17 0.53-0.75 1.23 3.71 1.07 4 1.04 4-0.41zm-39.73 155.72c0.33-0.33 1.2-0.36 1.92-0.07 0.8 0.32 0.56 0.55-0.61 0.6-1.05 0.04-1.64-0.19-1.31-0.53zm17.78-161.3c-1.24-2.33-1.32-3.09-0.29-3.09 1.31 0 3.27 3.86 2.27 4.48-0.51 0.32-1.4-0.31-1.98-1.39zm14.95-30.23c0-0.47 0.41-0.86 0.92-0.86 0.5 0 1.63-0.27 2.5-0.61 0.87-0.33 1.58-0.16 1.58 0.39 0 0.54-1.12 1.2-2.5 1.46-1.37 0.27-2.5 0.09-2.5-0.38zm8.87-7.55c-1.21-1.5-1.14-1.61 0.63-1 1.92 0.67 1.93 0.64 0.15-0.74-1.71-1.33-1.57-1.43 1.74-1.26 1.98 0.11 3.6 0.3 3.61 0.44 0 0.4-3.96 4.25-4.38 4.25-0.2 0-0.99-0.76-1.75-1.69zm-0.3-7.02c-1.67-2.28-1.7-2.56-0.25-2 0.93 0.36 1.68 0.21 1.68-0.32 0-0.54 0.51-0.97 1.12-0.97 0.8 0 0.82 0.37 0.06 1.28-1.32 1.6-0.31 3.33 2.32 3.99 1.65 0.41 1.56 0.51-0.5 0.58-1.61 0.06-3.18-0.85-4.43-2.56zm0.59-6.53c-1.56-1.56-1.46-2.76 0.23-2.76 1.59 0 2.94 2.68 1.73 3.43-0.44 0.27-1.32-0.03-1.96-0.67zm0.54-8.1c-0.28-0.74-0.11-1.98 0.38-2.75 0.65-1.03 0.89-0.66 0.91 1.34 0.01 2.99-0.48 3.52-1.29 1.41z"/>
  </g>
  <metadata>
    <rdf:RDF>
      <cc:Work>
        <dc:format>image/svg+xml</dc:format>
        <dc:type rdf:resource="http://purl.org/dc/dcmitype/StillImage"/>
        <cc:license rdf:resource="http://creativecommons.org/licenses/publicdomain/"/>
        <dc:publisher>
          <cc:Agent rdf:about="http://openclipart.org/">
            <dc:title>Openclipart</dc:title>
          </cc:Agent>
        </dc:publisher>
        <dc:title>Tree silhouettes</dc:title>
        <dc:date>2007-11-20T10:29:44</dc:date>
        <dc:description>Some shapes from photos.</dc:description>
        <dc:source>http://openclipart.org/detail/8759/tree-silhouettes-by-chrisdesign-8759</dc:source>
        <dc:creator>
          <cc:Agent>
            <dc:title>Chrisdesign</dc:title>
          </cc:Agent>
        </dc:creator>
        <dc:subject>
          <rdf:Bag>
            <rdf:li>clip art</rdf:li>
            <rdf:li>clipart</rdf:li>
            <rdf:li>image</rdf:li>
            <rdf:li>media</rdf:li>
            <rdf:li>nature</rdf:li>
            <rdf:li>png</rdf:li>
            <rdf:li>public domain</rdf:li>
            <rdf:li>shape</rdf:li>
            <rdf:li>silhouette</rdf:li>
            <rdf:li>svg</rdf:li>
            <rdf:li>tree</rdf:li>
          </rdf:Bag>
        </dc:subject>
      </cc:Work>
      <cc:License rdf:about="http://creativecommons.org/licenses/publicdomain/">
        <cc:permits rdf:resource="http://creativecommons.org/ns#Reproduction"/>
        <cc:permits rdf:resource="http://creativecommons.org/ns#Distribution"/>
        <cc:permits rdf:resource="http://creativecommons.org/ns#DerivativeWorks"/>
      </cc:License>
    </rdf:RDF>
  </metadata>
</svg>
